STARTFONT 2.1
COMMENT
COMMENT Converted from OpenType font "lsansi.ttf" by "otf2bdf 3.0".
COMMENT
FONT -FreeType-Lucida Sans-Medium-I-Normal--55-400-100-100-P-277-ISO10646-1
SIZE 40 100 100
FONTBOUNDINGBOX 73 64 -13 -12
STARTPROPERTIES 19
FOUNDRY "FreeType"
FAMILY_NAME "Lucida Sans"
WEIGHT_NAME "Medium"
SLANT "I"
SETWIDTH_NAME "Normal"
ADD_STYLE_NAME ""
PIXEL_SIZE 55
POINT_SIZE 400
RESOLUTION_X 100
RESOLUTION_Y 100
SPACING "P"
AVERAGE_WIDTH 277
CHARSET_REGISTRY "ISO10646"
CHARSET_ENCODING "1"
FONT_ASCENT 54
FONT_DESCENT 11
COPYRIGHT "© 1991 Bigelow & Holmes Inc. All Rights Reserved. © 1990-1991 Type Solutions, Inc. All Rights Reserved."
_OTF_FONTFILE "lsansi.ttf"
_OTF_PSNAME "LucidaSans-Italic"
ENDPROPERTIES
CHARS 240
STARTCHAR 0020
ENCODING 32
SWIDTH 306 0
DWIDTH 17 0
BBX 0 0 0 0
BITMAP
ENDCHAR
STARTCHAR 0021
ENCODING 33
SWIDTH 306 0
DWIDTH 17 0
BBX 13 40 6 0
BITMAP
00F8
00F8
01F8
01F0
01F0
01F0
01F0
03F0
03E0
03E0
03E0
03E0
07C0
07C0
07C0
07C0
07C0
0780
0F80
0F80
0F80
0F00
0F00
0F00
1F00
1E00
1E00
1E00
1E00
0000
0000
0000
0000
0000
0000
7C00
7C00
FC00
FC00
F800
ENDCHAR
STARTCHAR 0022
ENCODING 34
SWIDTH 360 0
DWIDTH 20 0
BBX 14 13 10 30
BITMAP
F87C
F87C
F87C
F87C
F87C
F87C
F87C
F87C
F87C
F87C
F87C
F87C
F87C
ENDCHAR
STARTCHAR 0023
ENCODING 35
SWIDTH 612 0
DWIDTH 34 0
BBX 34 40 4 0
BITMAP
00001E0380
00001C0780
00003C0700
0000380F00
0000780E00
0000701E00
0000F01C00
0000F03C00
0001E03800
0001E07800
0003C07800
0003C0F000
1FFFFFFFC0
1FFFFFFFC0
1FFFFFFF80
000F03C000
000E03C000
001E038000
001C078000
003C070000
003C0F0000
00780F0000
00781E0000
00701E0000
00F01C0000
7FFFFFFE00
7FFFFFFE00
FFFFFFFE00
03C0700000
0380F00000
0780E00000
0701E00000
0F01C00000
0F03C00000
1E03800000
1E07800000
3C07800000
3C0F000000
380F000000
781E000000
ENDCHAR
STARTCHAR 0024
ENCODING 36
SWIDTH 612 0
DWIDTH 34 0
BBX 27 46 7 -2
BITMAP
00006000
0000E000
0000E000
0007FE00
001FFFE0
007FFFE0
00FFFFE0
01FDC3E0
01F1C060
03E1C000
03E18000
07C18000
07C38000
07C38000
07C38000
07C30000
07E30000
03F70000
03FF0000
01FF0000
00FF0000
007F0000
003FC000
000FE000
000FF000
000FF800
000DFC00
000CFC00
001C7E00
001C3E00
001C3E00
00183E00
00183E00
00383E00
00383C00
00387C00
0038FC00
4031F800
7833F000
7FFFE000
FFFFC000
FFFF0000
07F80000
00E00000
00E00000
00E00000
ENDCHAR
STARTCHAR 0025
ENCODING 37
SWIDTH 738 0
DWIDTH 41 0
BBX 39 42 5 -1
BITMAP
000000001E
003F00003C
00FFC0007C
01FFE000F8
03E3E001F0
07C1F001E0
0780F003C0
0F00F00780
0F00F00F00
0F00F01F00
1E00F03E00
1E00F07C00
1E01E07800
1E01E0F000
1E01E1E000
1E03C3C000
1F07C7C000
0F8F8F8000
0FFF1F0000
07FE1E0000
01F83C0000
0000783F00
0000F0FFC0
0001F1FFE0
0003E3E3E0
0007C7C1F0
00078780F0
000F0F00F0
001E0F00F0
003C0F00F0
007C1E00F0
00F81E00F0
01F01E01E0
01E01E01E0
03C01E01E0
07801E03C0
0F001F07C0
1F000F8F80
3E000FFF00
3C0007FE00
780001F800
F000000000
ENDCHAR
STARTCHAR 0026
ENCODING 38
SWIDTH 702 0
DWIDTH 39 0
BBX 34 42 5 -1
BITMAP
00001F8000
00007FE000
0001FFF000
0003FFF800
0007F0FC00
0007C0FC00
000FC07C00
000F807C00
001F807C00
001F807C00
001F80FC00
001F80F800
001F81F800
001F83F000
001F87E000
000F9FC000
000FFF8000
000FFF0000
001FFC0000
007FF80000
01FFE00000
07FFE007C0
0FF3F007C0
1FC3F007C0
3F81F007C0
3F01F807C0
7E00F80F80
7C00FC0F80
FC007C0F00
FC007E1F00
FC003E3E00
FC003F3E00
FC001FFC00
FC001FF800
FC000FF000
7E000FE000
7F000FE000
3F803FF000
3FFFFFF800
1FFFFDF800
07FFF1FC00
03FFC0FE00
ENDCHAR
STARTCHAR 0027
ENCODING 39
SWIDTH 216 0
DWIDTH 12 0
BBX 6 15 10 28
BITMAP
FC
FC
FC
FC
FC
FC
FC
F8
F8
F8
F8
78
78
78
78
ENDCHAR
STARTCHAR 0028
ENCODING 40
SWIDTH 324 0
DWIDTH 18 0
BBX 18 49 5 -7
BITMAP
0000C0
0001C0
0003C0
000780
000F00
001E00
003C00
007800
00F800
01F000
01E000
03E000
07C000
07C000
0F8000
0F8000
1F8000
1F0000
1F0000
3E0000
3E0000
7E0000
7E0000
7C0000
7C0000
7C0000
FC0000
FC0000
F80000
F80000
F80000
F80000
F80000
F80000
F80000
F80000
F80000
780000
780000
7C0000
7C0000
3C0000
3E0000
1E0000
1F0000
0F0000
078000
078000
038000
ENDCHAR
STARTCHAR 0029
ENCODING 41
SWIDTH 324 0
DWIDTH 18 0
BBX 18 50 1 -7
BITMAP
002000
007000
007800
007C00
003E00
001E00
001F00
000F00
000F00
000F80
000F80
000780
000780
0007C0
0007C0
0007C0
0007C0
0007C0
0007C0
0007C0
0007C0
000FC0
000FC0
000FC0
000F80
000F80
001F80
001F80
001F00
001F00
003F00
003E00
003E00
007C00
007C00
00F800
00F800
01F000
01F000
03E000
07C000
078000
0F8000
1F0000
3E0000
7C0000
780000
E00000
C00000
800000
ENDCHAR
STARTCHAR 002A
ENCODING 42
SWIDTH 450 0
DWIDTH 25 0
BBX 19 20 9 20
BITMAP
00F800
00F000
00F000
00F000
00E000
00E000
70E0E0
FCC7E0
FE3FE0
7E1FE0
001000
032000
077000
0E7000
1E7800
3C7800
783C00
783C00
303800
002000
ENDCHAR
STARTCHAR 002B
ENCODING 43
SWIDTH 612 0
DWIDTH 34 0
BBX 29 30 6 1
BITMAP
0001E000
0001E000
0001E000
0001E000
0003C000
0003C000
0003C000
0003C000
0003C000
00078000
00078000
00078000
00078000
FFFFFFF8
FFFFFFF8
FFFFFFF8
FFFFFFF8
000F0000
000F0000
001E0000
001E0000
001E0000
001E0000
001E0000
001C0000
003C0000
003C0000
003C0000
003C0000
003C0000
ENDCHAR
STARTCHAR 002C
ENCODING 44
SWIDTH 306 0
DWIDTH 17 0
BBX 9 16 4 -9
BITMAP
1F80
3F80
3F80
3F80
3F00
3F00
7F00
0F00
1F00
1E00
1E00
1C00
3C00
7800
F000
C000
ENDCHAR
STARTCHAR 002D
ENCODING 45
SWIDTH 306 0
DWIDTH 17 0
BBX 12 4 6 15
BITMAP
FFF0
FFF0
FFF0
FFE0
ENDCHAR
STARTCHAR 002E
ENCODING 46
SWIDTH 306 0
DWIDTH 17 0
BBX 8 7 5 0
BITMAP
3F
7F
7F
7F
7E
7E
FE
ENDCHAR
STARTCHAR 002F
ENCODING 47
SWIDTH 468 0
DWIDTH 26 0
BBX 35 51 -1 -8
BITMAP
00000003E0
00000003C0
00000007C0
0000000F80
0000000F80
0000001F00
0000001E00
0000003E00
0000007C00
0000007C00
000000F800
000000F000
000001F000
000003E000
000003C000
000007C000
0000078000
00000F8000
00001F0000
00001E0000
00003E0000
00003C0000
00007C0000
0000F80000
0000F00000
0001F00000
0001E00000
0003E00000
0007C00000
0007800000
000F800000
000F000000
001F000000
003E000000
003C000000
007C000000
0078000000
00F8000000
01F0000000
01E0000000
03E0000000
07C0000000
07C0000000
0F80000000
0F00000000
1F00000000
3E00000000
3E00000000
7C00000000
7800000000
F800000000
ENDCHAR
STARTCHAR 0030
ENCODING 48
SWIDTH 630 0
DWIDTH 35 0
BBX 30 42 7 -1
BITMAP
0001FC00
0007FF00
001FFF80
003FFFC0
007E0FE0
00FC03F0
01F001F0
03F001F8
03E000F8
07C000F8
07C000F8
0F8000F8
0F8000FC
1F8000FC
1F0000FC
3F0000FC
3F0000F8
3E0000F8
7E0001F8
7E0001F8
7E0001F8
7C0001F8
7C0001F8
FC0001F0
FC0003F0
FC0003F0
FC0003E0
FC0003E0
FC0007E0
FC0007C0
FC0007C0
FC000F80
FC000F80
FC001F00
7C001F00
7E003E00
7E007C00
3F81F800
1FFFF000
0FFFE000
07FFC000
01FF0000
ENDCHAR
STARTCHAR 0031
ENCODING 49
SWIDTH 612 0
DWIDTH 34 0
BBX 13 40 14 1
BITMAP
1FF8
3FF8
7FF8
7FF8
01F0
01F0
01F0
01F0
03F0
03F0
03E0
03E0
03E0
07E0
07E0
07C0
07C0
07C0
0FC0
0FC0
0F80
0F80
0F80
1F80
1F80
1F00
1F00
1F00
3F00
3F00
3E00
3E00
3E00
7E00
7E00
7C00
7C00
7C00
FC00
FC00
ENDCHAR
STARTCHAR 0032
ENCODING 50
SWIDTH 630 0
DWIDTH 35 0
BBX 31 41 5 0
BITMAP
0001FF00
001FFFC0
007FFFF0
00FFFFF8
00FC07FC
00E001FC
008000FC
0000007C
0000007E
0000007E
0000007C
0000007C
000000FC
000000FC
000001F8
000001F8
000003F0
000007E0
00000FE0
00001F80
00003F00
0000FE00
0001FC00
0003F800
000FE000
001FC000
003F8000
007E0000
00FC0000
01F80000
03F00000
07E00000
0FC00000
1F800000
3F000000
3F000000
7FFFFF80
7FFFFF80
7FFFFF00
7FFFFF00
FFFFFF00
ENDCHAR
STARTCHAR 0033
ENCODING 51
SWIDTH 630 0
DWIDTH 35 0
BBX 27 42 7 -1
BITMAP
001FF800
00FFFE00
01FFFF80
01FFFFC0
01E03FC0
01000FE0
000007E0
000007E0
000007E0
000007E0
000007E0
000007E0
000007C0
00000FC0
00001F80
00003F00
00007E00
0003FC00
01FFF800
01FFE000
01FFC000
01FFF000
0007FC00
0000FE00
00007E00
00003F00
00001F00
00001F80
00001F80
00001F80
00001F00
00001F00
00003F00
00003E00
00007E00
0000FC00
0001FC00
E003F800
FFFFF000
FFFFE000
FFFF8000
7FFE0000
ENDCHAR
STARTCHAR 0034
ENCODING 52
SWIDTH 612 0
DWIDTH 34 0
BBX 28 40 5 1
BITMAP
000007E0
00000FE0
00000FE0
00001FE0
00003FE0
00007FC0
0000FBC0
0001FFC0
0003F7C0
0007E7C0
0007C7C0
000F8780
001F0F80
003E0F80
007C0F80
00FC0F80
01F80F00
03F01F00
03E01F00
07C01F00
0F801F00
1F001E00
3E001E00
7C003E00
FC003E00
FFFFFFF0
FFFFFFF0
FFFFFFE0
FFFFFFE0
00007C00
00007C00
0000F800
0000F800
0000F800
0000F800
0000F800
0001F000
0001F000
0001F000
0001F000
ENDCHAR
STARTCHAR 0035
ENCODING 53
SWIDTH 612 0
DWIDTH 34 0
BBX 29 41 7 -1
BITMAP
00FFFFF8
00FFFFF8
00FFFFF8
00FFFFF0
01FFFFF0
01E00000
01E00000
01E00000
01E00000
03E00000
03C00000
03C00000
03C00000
03C00000
03C00000
07800000
07FE0000
07FFC000
07FFF000
07FFF800
0003FC00
0000FE00
00007F00
00003F00
00001F00
00001F00
00001F80
00001F80
00001F00
00001F00
00003F00
00003F00
00007E00
00007E00
0000FC00
0001FC00
6007F800
FFFFF000
FFFFE000
FFFF8000
FFFE0000
ENDCHAR
STARTCHAR 0036
ENCODING 54
SWIDTH 630 0
DWIDTH 35 0
BBX 30 42 7 -1
BITMAP
0000FFC0
0003FFF8
000FFFFC
001FFFF8
007F80F8
00FE0018
00FC0000
01F80000
03F00000
07E00000
07E00000
0FC00000
0FC00000
1F800000
1F800000
3F000000
3F07F000
3F3FFC00
7FFFFF00
7FFFFF80
7FF83FC0
7FC00FC0
7F800FE0
FF0007E0
FE0007E0
FE0007E0
FC0007E0
FC0007E0
FC0007E0
FC0007C0
FC0007C0
FC000FC0
FC000F80
7C000F80
7C001F00
7E003F00
3E007E00
3F80FC00
1FFFF800
0FFFF000
07FFE000
03FF8000
ENDCHAR
STARTCHAR 0037
ENCODING 55
SWIDTH 612 0
DWIDTH 34 0
BBX 30 40 8 0
BITMAP
07FFFFFC
07FFFFFC
07FFFFFC
07FFFFFC
07FFFFFC
000000F8
000001F0
000003E0
000007C0
00000F80
00001F00
00003E00
00007C00
00007800
0000F800
0001F000
0003E000
0007C000
000F8000
001F8000
001F0000
003E0000
007E0000
00FC0000
00F80000
01F80000
03F00000
07E00000
07E00000
0FC00000
0FC00000
1F800000
1F800000
3F000000
3F000000
7E000000
7E000000
7E000000
FE000000
FC000000
ENDCHAR
STARTCHAR 0038
ENCODING 56
SWIDTH 612 0
DWIDTH 34 0
BBX 29 42 6 -1
BITMAP
0001FE00
000FFF80
001FFFE0
003FFFF0
007E07F0
00F801F8
01F000F8
01F000F8
03E000F8
03E000F8
03E000F8
03E001F0
03E003F0
03F007E0
03F80FC0
03FC1F80
01FE7F00
00FFFE00
007FFC00
003FF000
00FFF800
01FFFC00
03F3FE00
07E1FF00
0FC0FF80
1F803F80
3F001FC0
7E001FC0
7C000FC0
7C000FC0
FC000FC0
FC000FC0
FC000FC0
FC000F80
FC000F80
FC001F00
7E003F00
7F80FE00
3FFFFC00
3FFFF800
0FFFE000
03FF8000
ENDCHAR
STARTCHAR 0039
ENCODING 57
SWIDTH 612 0
DWIDTH 34 0
BBX 30 42 5 -1
BITMAP
0001FC00
000FFF00
001FFFC0
007FFFE0
00FE0FF0
01F803F0
01F001F8
03E001F8
07E000F8
07C000FC
0FC000FC
0F8000FC
0F8000FC
1F8000FC
1F8000FC
1F8000FC
1F8000FC
1F8001FC
1F8001FC
1F8003FC
1FC007F8
0FC01FF8
0FF07FF8
07FFFFF8
03FFFFF0
01FFF3F0
003F83F0
000003E0
000007E0
000007C0
00000FC0
00000F80
00001F80
00001F00
00003F00
00007E00
4000FC00
7003F800
7FFFF000
FFFFE000
FFFF8000
3FFE0000
ENDCHAR
STARTCHAR 003A
ENCODING 58
SWIDTH 306 0
DWIDTH 17 0
BBX 11 29 6 0
BITMAP
03E0
07E0
07C0
07C0
07C0
0000
0000
0000
0000
0000
0000
0000
0000
0000
0000
0000
0000
0000
0000
0000
0000
0000
0000
0000
7C00
7C00
FC00
FC00
F800
ENDCHAR
STARTCHAR 003B
ENCODING 59
SWIDTH 306 0
DWIDTH 17 0
BBX 13 38 4 -9
BITMAP
00F8
01F8
01F0
01F0
01F0
0000
0000
0000
0000
0000
0000
0000
0000
0000
0000
0000
0000
0000
0000
0000
0000
0000
0000
0000
1F00
1F00
3F00
3F00
3E00
0E00
1E00
1E00
1C00
1C00
3800
7000
E000
8000
ENDCHAR
STARTCHAR 003C
ENCODING 60
SWIDTH 612 0
DWIDTH 34 0
BBX 31 29 7 1
BITMAP
00000002
0000000C
0000003C
000000FC
000003FC
00001FF8
00007FE0
0001FF80
0007FE00
001FF000
007FC000
03FF0000
0FFC0000
3FF00000
FFC00000
FF000000
3FC00000
1FF00000
07F80000
01FE0000
007F8000
003FE000
000FF000
0003FC00
0000FF00
00003FC0
00001F80
00000780
00000180
ENDCHAR
STARTCHAR 003D
ENCODING 61
SWIDTH 612 0
DWIDTH 34 0
BBX 31 13 5 9
BITMAP
3FFFFFFE
3FFFFFFE
3FFFFFFE
3FFFFFFC
00000000
00000000
00000000
00000000
00000000
FFFFFFF8
FFFFFFF8
FFFFFFF8
FFFFFFF8
ENDCHAR
STARTCHAR 003E
ENCODING 62
SWIDTH 612 0
DWIDTH 34 0
BBX 31 28 6 2
BITMAP
07000000
07C00000
07E00000
07F80000
01FE0000
00FF8000
003FC000
000FF000
0003FC00
0001FF00
00007F80
00001FE0
000007F8
000001FE
000007FE
00001FF0
00007FC0
0003FF00
000FFC00
003FF000
00FFC000
03FE0000
0FF80000
7FE00000
7F800000
7E000000
F8000000
C0000000
ENDCHAR
STARTCHAR 003F
ENCODING 63
SWIDTH 450 0
DWIDTH 25 0
BBX 22 41 7 0
BITMAP
03FE00
3FFFC0
3FFFE0
3FFFF0
7C07F8
6001F8
0001F8
0000FC
0000FC
0000F8
0000F8
0001F8
0001F0
0003F0
0007E0
000FC0
001F80
003F00
007E00
00FC00
01F800
03F000
07E000
0FC000
0F8000
1F8000
1F0000
1F0000
3F0000
3E0000
000000
000000
000000
000000
000000
000000
7C0000
7C0000
FC0000
F80000
F80000
ENDCHAR
STARTCHAR 0040
ENCODING 64
SWIDTH 828 0
DWIDTH 46 0
BBX 42 42 6 -1
BITMAP
00000FF80000
00007FFF0000
0001FFFFC000
0007F00FE000
001F8001F800
003E00007C00
007800003C00
00F000001E00
01E000000F00
03C000000700
078007FE0780
0F003FFE0380
0E007FFE0380
1E00F03E01C0
1C01C01E01C0
3803801C01C0
3807803C01C0
7807003C01C0
700F003C01C0
700E003C01C0
701E007801C0
E01E00F80180
E01C00F80380
E03C01F80380
E03C03F80700
E03C03F00700
E03C07700E00
E03C0E701E00
E03C1EF03C00
E03E3CF0F800
701FF8FFF000
701FE0FFC000
7807803F0000
380000000000
3C0000000000
1E0000000000
0F0000000000
0F8000000000
07E001C00000
01FFFFC00000
00FFFFC00000
001FFE000000
ENDCHAR
STARTCHAR 0041
ENCODING 65
SWIDTH 666 0
DWIDTH 37 0
BBX 36 39 1 1
BITMAP
000003F000
000007F800
000007F800
00000FF800
00000FF800
00001FF800
00001FF800
00003EFC00
00007EFC00
00007CFC00
0000FCFC00
0000F87C00
0001F87E00
0001F07E00
0003F07E00
0007E07E00
0007C03E00
000FC03F00
000F803F00
001F803F00
001F003F00
003F001F00
007E001F80
007C001F80
00FC001F80
00FFFFFF80
01FFFFFF80
01FFFFFFC0
03FFFFFFC0
07E0000FC0
07C0000FC0
0FC00007C0
0F800007E0
1F800007E0
1F000007E0
3E000007E0
7E000003E0
7C000003E0
FC000003F0
ENDCHAR
STARTCHAR 0042
ENCODING 66
SWIDTH 576 0
DWIDTH 32 0
BBX 29 40 5 0
BITMAP
00FFFC00
00FFFF80
01FFFFE0
01FFFFE0
01F80FF0
01F003F0
01F001F8
01F001F8
03F001F0
03F001F0
03E001F0
03E003F0
03E003E0
07E007C0
07E00FC0
07C03F80
07C0FE00
07FFFC00
0FFFF000
0FFFF800
0FFFFC00
0F83FF00
0F807F00
1F801F80
1F800FC0
1F800FC0
1F0007C0
1F0007E0
3F0007E0
3F0007E0
3F0007C0
3E000FC0
3E000FC0
7E001F80
7E003F80
7E01FF00
7FFFFE00
7FFFFC00
FFFFF000
FFFF8000
ENDCHAR
STARTCHAR 0043
ENCODING 67
SWIDTH 666 0
DWIDTH 37 0
BBX 36 41 6 -1
BITMAP
00000FFE00
0000FFFFF0
0003FFFFE0
000FFFFFE0
001FF003E0
003F800060
00FE000000
01FC000000
01F8000000
03F0000000
07E0000000
0FC0000000
0FC0000000
1F80000000
1F80000000
3F00000000
3F00000000
3E00000000
7E00000000
7E00000000
7C00000000
FC00000000
FC00000000
FC00000000
FC00000000
FC00000000
FC00000000
FC00000000
FC00000000
FC00000000
FC00000000
7C00000000
7E00000000
7E00000000
3F00000400
3F80003C00
1FE001FC00
0FFFFFF800
07FFFFF800
03FFFFC000
00FFFE0000
ENDCHAR
STARTCHAR 0044
ENCODING 68
SWIDTH 738 0
DWIDTH 41 0
BBX 37 40 6 0
BITMAP
01FFFFE000
01FFFFFC00
01FFFFFF00
01FFFFFF80
03F001FFC0
03F0003FE0
03F0000FE0
03E00007F0
03E00003F0
07E00003F0
07E00003F0
07E00001F0
07C00001F8
07C00001F8
0FC00001F8
0FC00001F8
0FC00001F0
0F800001F0
0F800001F0
0F800003F0
1F800003F0
1F800003F0
1F800003E0
1F000007E0
1F000007E0
3F00000FC0
3F00000FC0
3F00001F80
3E00001F80
3E00003F00
7E00007E00
7E0000FE00
7E0001FC00
7C0003F800
7C000FF000
FC007FE000
FFFFFFC000
FFFFFF0000
FFFFFC0000
FFFFC00000
ENDCHAR
STARTCHAR 0045
ENCODING 69
SWIDTH 540 0
DWIDTH 30 0
BBX 30 40 5 0
BITMAP
00FFFFFC
00FFFFFC
01FFFFF8
01FFFFF8
01F80000
01F00000
01F00000
03F00000
03F00000
03F00000
03E00000
03E00000
07E00000
07E00000
07E00000
07C00000
07C00000
0FFFFE00
0FFFFE00
0FFFFE00
0FFFFE00
0F800000
1F800000
1F800000
1F800000
1F000000
1F000000
1F000000
3F000000
3F000000
3F000000
3E000000
3E000000
7E000000
7E000000
7E000000
7FFFFF00
7FFFFF00
FFFFFF00
FFFFFE00
ENDCHAR
STARTCHAR 0046
ENCODING 70
SWIDTH 522 0
DWIDTH 29 0
BBX 30 40 5 0
BITMAP
00FFFFFC
00FFFFFC
01FFFFF8
01FFFFF8
01F80000
01F00000
01F00000
03F00000
03F00000
03F00000
03E00000
03E00000
07E00000
07E00000
07E00000
07E00000
07C00000
0FC00000
0FFFFE00
0FFFFE00
0FFFFE00
0FFFFE00
1F800000
1F800000
1F800000
1F800000
1F000000
1F000000
3F000000
3F000000
3F000000
3E000000
3E000000
7E000000
7E000000
7E000000
7C000000
7C000000
FC000000
FC000000
ENDCHAR
STARTCHAR 0047
ENCODING 71
SWIDTH 684 0
DWIDTH 38 0
BBX 35 41 6 -1
BITMAP
00001FFE00
0000FFFFE0
0003FFFFE0
000FFFFFE0
001FF00FE0
007F800060
00FE000000
01FC000000
03F8000000
03F0000000
07E0000000
0FC0000000
0FC0000000
1F80000000
1F00000000
3F00000000
3F00000000
7E00000000
7E00000000
7E00000000
7C00000000
FC00000000
FC00000000
FC00003F00
FC00003F00
FC00003E00
FC00003E00
FC00007E00
FC00007E00
FC00007E00
FC00007C00
7C00007C00
7E0000FC00
7E0000FC00
3F0000FC00
3F8000F800
1FE003F800
0FFFFFF800
07FFFFF800
03FFFFE000
00FFFE0000
ENDCHAR
STARTCHAR 0048
ENCODING 72
SWIDTH 720 0
DWIDTH 40 0
BBX 38 40 5 0
BITMAP
00F80000FC
00F80000FC
01F80000F8
01F80000F8
01F80001F8
01F00001F8
01F00001F8
03F00001F0
03F00001F0
03F00003F0
03E00003F0
03E00003F0
07E00003E0
07E00003E0
07E00007E0
07C00007E0
07C00007E0
0FFFFFFFC0
0FFFFFFFC0
0FFFFFFFC0
0FFFFFFFC0
0F80000FC0
1F80000F80
1F80000F80
1F80001F80
1F80001F80
1F00001F80
1F00001F00
3F00001F00
3F00003F00
3F00003F00
3E00003F00
3E00003E00
7E00003E00
7E00007E00
7E00007E00
7C00007E00
7C00007C00
FC00007C00
FC0000FC00
ENDCHAR
STARTCHAR 0049
ENCODING 73
SWIDTH 288 0
DWIDTH 16 0
BBX 13 40 5 0
BITMAP
00F8
00F8
01F8
01F8
01F8
01F0
01F0
03F0
03F0
03F0
03E0
03E0
07E0
07E0
07E0
07C0
07C0
0FC0
0FC0
0FC0
0F80
0F80
1F80
1F80
1F80
1F80
1F00
1F00
3F00
3F00
3F00
3E00
3E00
7E00
7E00
7E00
7C00
7C00
FC00
FC00
ENDCHAR
STARTCHAR 004A
ENCODING 74
SWIDTH 396 0
DWIDTH 22 0
BBX 26 48 -1 -8
BITMAP
00000FC0
00000FC0
00000FC0
00000F80
00000F80
00001F80
00001F80
00001F80
00001F00
00001F00
00003F00
00003F00
00003F00
00003E00
00003E00
00007E00
00007E00
00007E00
00007C00
00007C00
0000FC00
0000FC00
0000FC00
0000F800
0000F800
0001F800
0001F800
0001F800
0001F000
0001F000
0003F000
0003F000
0003F000
0003E000
0003E000
0003E000
0007E000
0007C000
0007C000
000FC000
000F8000
001F8000
001F0000
607E0000
FFFE0000
FFF80000
FFF00000
7F800000
ENDCHAR
STARTCHAR 004B
ENCODING 75
SWIDTH 630 0
DWIDTH 35 0
BBX 34 40 5 0
BITMAP
00F8000FC0
00F8001F80
01F8003F00
01F8007E00
01F800FC00
01F001F800
01F003F000
03F007E000
03F00FC000
03F01F8000
03E03F0000
03E07E0000
07E0FC0000
07E1F80000
07E3F00000
07C7E00000
07CFC00000
0FDF800000
0FFF000000
0FFF000000
0FBF000000
0F9F800000
1F8FC00000
1F8FC00000
1F87E00000
1F83F00000
1F03F00000
1F01F80000
3F01FC0000
3F00FC0000
3F007E0000
3E007F0000
3E003F0000
7E001F8000
7E001FC000
7E000FC000
7C0007E000
7C0007F000
FC0003F000
FC0001F800
ENDCHAR
STARTCHAR 004C
ENCODING 76
SWIDTH 540 0
DWIDTH 30 0
BBX 25 40 5 0
BITMAP
00F80000
00F80000
01F80000
01F80000
01F80000
01F00000
01F00000
03F00000
03F00000
03F00000
03E00000
03E00000
07E00000
07E00000
07E00000
07E00000
07C00000
0FC00000
0FC00000
0FC00000
0FC00000
0F800000
0F800000
1F800000
1F800000
1F800000
1F000000
1F000000
3F000000
3F000000
3F000000
3E000000
3E000000
7E000000
7E000000
7E000000
7FFFFF80
7FFFFF80
FFFFFF00
FFFFFF00
ENDCHAR
STARTCHAR 004D
ENCODING 77
SWIDTH 810 0
DWIDTH 45 0
BBX 43 40 5 0
BITMAP
00FF00001FE0
00FF00001FE0
01FF00003FC0
01FF00003FC0
01FF00007FC0
01FF0000FFC0
01FF0000FFC0
03FF8001FF80
03FF8001FF80
03EF8003EF80
03EF8003CF80
03CF8007DF80
07CF80079F00
07CF800F9F00
07CFC00F1F00
07C7C01F1F00
0787C03E3F00
0F87C03E3F00
0F87C07C3E00
0F87C07C3E00
0F87E0F83E00
0F07E0F07E00
1F03E1F07E00
1F03E1E07C00
1F03E3E07C00
1F03E7C07C00
1E03E7C07C00
3E03FF80FC00
3E01FF80F800
3E01FF00F800
3E01FE00F800
3E01FE00F800
7C01FC01F800
7C01FC01F000
7C01F801F000
7C00F801F000
7C000001F000
78000003F000
F8000003E000
F8000003E000
ENDCHAR
STARTCHAR 004E
ENCODING 78
SWIDTH 720 0
DWIDTH 40 0
BBX 38 40 5 0
BITMAP
00FC00007C
00FC00007C
01FE00007C
01FE000078
01FE0000F8
01FF0000F8
01FF0000F8
03FF8000F8
03FF8000F0
03EFC001F0
03EFC001F0
03E7C001F0
07C7E001F0
07C7E001E0
07C3F003E0
07C3F003E0
07C1F803E0
0781F803E0
0F80F803C0
0F80FC07C0
0F80FC07C0
0F807E07C0
0F007E07C0
1F003F0780
1F003F0F80
1F001F0F80
1F001F8F80
1E001F8F80
3E000FCF00
3E000FDF00
3E0007FF00
3E0007FF00
3C0003FF00
7C0003FF00
7C0003FE00
7C0001FE00
7C0001FE00
780000FE00
F80000FE00
F800007C00
ENDCHAR
STARTCHAR 004F
ENCODING 79
SWIDTH 756 0
DWIDTH 42 0
BBX 38 41 6 -1
BITMAP
00001FF000
0000FFFE00
0003FFFF00
000FFFFFC0
003FE03FE0
007F800FE0
00FE0007F0
01FC0003F8
03F80001F8
03F00001F8
07E00000FC
0FC00000FC
0FC00000FC
1F800000FC
1F000000FC
3F000000FC
3F000000FC
7E000000FC
7E000000FC
7E000000FC
7C000000F8
FC000000F8
FC000001F8
FC000001F8
FC000001F0
FC000003F0
FC000003F0
FC000007E0
FC000007E0
FC00000FC0
FC00001F80
7C00001F80
7E00003F00
7F00007E00
3F0000FC00
3F8003F800
1FE00FF000
0FFFFFE000
07FFFF8000
03FFFF0000
00FFF80000
ENDCHAR
STARTCHAR 0050
ENCODING 80
SWIDTH 558 0
DWIDTH 31 0
BBX 30 40 5 0
BITMAP
00FFFE00
01FFFFC0
01FFFFE0
01FFFFF0
01F007F8
01F001F8
01F000F8
03F000FC
03F000FC
03E000FC
03E000F8
03E000F8
07E001F8
07E001F0
07E003F0
07C003E0
07C007E0
0FC00FC0
0FC03F80
0FC0FF00
0FFFFE00
0FFFFC00
1FFFF000
1FFF0000
1F800000
1F000000
1F000000
3F000000
3F000000
3F000000
3E000000
3E000000
7E000000
7E000000
7E000000
7C000000
7C000000
FC000000
FC000000
FC000000
ENDCHAR
STARTCHAR 0051
ENCODING 81
SWIDTH 756 0
DWIDTH 42 0
BBX 38 50 6 -10
BITMAP
00001FF000
0000FFFE00
0003FFFF00
000FFFFFC0
003FE03FE0
007F800FE0
00FE0007F0
01FC0003F0
03F80001F8
03F00001F8
07E00000FC
0FC00000FC
0FC00000FC
1F800000FC
1F000000FC
3F000000FC
3F000000FC
7E000000FC
7E000000FC
7E000000FC
7C000000F8
FC000000F8
FC000001F8
FC000001F8
FC000001F0
FC000003F0
FC000003F0
FC000007E0
FC000007E0
FC00000FC0
FC00001FC0
7C00001F80
7E00003F00
7F00007E00
3F0000FC00
3F8003F800
1FE00FF000
0FFFFFE000
07FFFF8000
03FFFF0000
00FFFF0000
00001FC000
00000FF000
000007FC00
000003FF80
000000FFF8
0000007FF8
0000001FF0
00000007E0
00000001C0
ENDCHAR
STARTCHAR 0052
ENCODING 82
SWIDTH 612 0
DWIDTH 34 0
BBX 30 40 5 0
BITMAP
00FFFF80
00FFFFE0
01FFFFF0
01FFFFF8
01F007F8
01F001F8
01F000F8
03F000FC
03F000FC
03E000F8
03E000F8
03E001F8
07E001F8
07E003F0
07E007E0
07C00FE0
07C01FC0
0FC07F80
0FFFFF00
0FFFFC00
0FFFF000
0FFFF000
1F81F000
1F81F800
1F81F800
1F00FC00
1F00FC00
3F007E00
3F007E00
3F003F00
3E003F00
3E001F00
7E001F80
7E000F80
7E000FC0
7C000FC0
7C0007E0
FC0007E0
FC0003F0
FC0003F0
ENDCHAR
STARTCHAR 0053
ENCODING 83
SWIDTH 558 0
DWIDTH 31 0
BBX 30 41 4 -1
BITMAP
0001FFC0
000FFFFC
001FFFFC
007FFFFC
007F00FC
00FC001C
01F80000
01F00000
03F00000
03F00000
03F00000
03F00000
03F00000
03F80000
01FC0000
01FE0000
00FF0000
00FF8000
007FC000
003FF000
000FF800
0007FC00
0003FE00
0001FE00
00007F00
00003F80
00001F80
00001F80
00000F80
00000FC0
00000FC0
00000F80
00000F80
00001F80
00001F00
C0003F00
F800FE00
FFFFFC00
FFFFF800
FFFFF000
3FFF8000
ENDCHAR
STARTCHAR 0054
ENCODING 84
SWIDTH 612 0
DWIDTH 34 0
BBX 34 40 7 0
BITMAP
7FFFFFFFC0
7FFFFFFFC0
7FFFFFFFC0
FFFFFFFFC0
0003F00000
0003F00000
0003E00000
0007E00000
0007E00000
0007E00000
0007E00000
0007C00000
0007C00000
000FC00000
000FC00000
000FC00000
000F800000
000F800000
001F800000
001F800000
001F800000
001F000000
001F000000
003F000000
003F000000
003F000000
003E000000
003E000000
007E000000
007E000000
007E000000
007C000000
007C000000
00FC000000
00FC000000
00FC000000
00F8000000
00F8000000
01F8000000
01F8000000
ENDCHAR
STARTCHAR 0055
ENCODING 85
SWIDTH 666 0
DWIDTH 37 0
BBX 33 40 7 0
BITMAP
07E0000F80
07E0000F80
07E0000F80
0FC0000F80
0FC0000F80
0FC0001F00
0FC0001F00
0FC0001F00
0F80001F00
1F80001F00
1F80003E00
1F80003E00
1F80003E00
1F00003E00
3F00003E00
3F00007C00
3F00007C00
3F00007C00
3E00007C00
7E00007C00
7E0000F800
7E0000F800
7E0000F800
7C0000F800
7C0000F800
FC0001F000
FC0001F000
FC0001F000
FC0001F000
FC0003E000
FC0003E000
FC0003E000
FC0007C000
7E000FC000
7E001F8000
7F803F0000
3FFFFE0000
1FFFFC0000
0FFFF00000
03FFC00000
ENDCHAR
STARTCHAR 0056
ENCODING 86
SWIDTH 666 0
DWIDTH 37 0
BBX 35 40 9 0
BITMAP
F8000007E0
F8000007C0
FC00000FC0
FC00000F80
FC00001F80
FC00001F00
7C00003E00
7E00007E00
7E00007C00
7E0000FC00
7E0000F800
3E0001F800
3E0001F000
3F0003F000
3F0007E000
3F0007C000
1F000FC000
1F000F8000
1F801F8000
1F801F0000
1F803F0000
1F803E0000
0F807C0000
0FC0FC0000
0FC0F80000
0FC1F80000
0FC1F00000
07C3F00000
07C3E00000
07E7C00000
07EFC00000
07EF800000
03FF800000
03FF000000
03FF000000
03FE000000
03FE000000
03FC000000
01F8000000
01F8000000
ENDCHAR
STARTCHAR 0057
ENCODING 87
SWIDTH 864 0
DWIDTH 48 0
BBX 45 40 10 0
BITMAP
FC001FC000F8
FC001FC000F8
FC003FC001F0
FC003FC001F0
FC007FC003E0
FC007FC003E0
FC007FC007C0
FC00FFC007C0
FC00FFC00F80
FC01FFC00F80
FC01FFC01F00
FC03EFC01F00
FC03EFC03E00
FC07CFC03E00
FC07CFC07C00
FC07CFC07C00
FC0F8FC0FC00
FC0F8FC0F800
FC1F0FC1F800
FC1F0FC1F000
FC3E0FC3F000
FC3E0FC3E000
FC7E0FC7E000
FC7C0FC7C000
FC7C0FC7C000
FCF80FCF8000
FCF80FCF8000
FDF00FDF0000
FDF00FDF0000
FFF00FFE0000
FFE00FFE0000
FFE00FFE0000
FFC00FFC0000
FFC00FFC0000
FF800FF80000
FF800FF80000
FF800FF00000
FF000FF00000
FF000FE00000
FE000FE00000
ENDCHAR
STARTCHAR 0058
ENCODING 88
SWIDTH 612 0
DWIDTH 34 0
BBX 38 40 1 0
BITMAP
00FC00007C
007E0000FC
007E0001F8
003F0003F0
003F0007E0
001F800FC0
001F801F80
001FC01F00
000FC03F00
000FE07E00
0007E0FC00
0007E1F800
0003F3F000
0003F3E000
0001FFE000
0001FFC000
0000FF8000
0000FF0000
0000FE0000
0000FE0000
0000FE0000
0001FF0000
0003FF0000
0007FF8000
000FDF8000
001F8FC000
001F0FC000
003F0FE000
007E07E000
00FC07F000
01F803F000
03F003F000
03E001F800
07E001F800
0FC000FC00
1F8000FC00
3F00007E00
7E00007E00
FC00003F00
F800003F00
ENDCHAR
STARTCHAR 0059
ENCODING 89
SWIDTH 594 0
DWIDTH 33 0
BBX 32 40 8 0
BITMAP
FC00003F
7E00007E
7E0000FC
3F0000F8
3F0001F0
1F8003F0
1F8007E0
1F800FC0
0FC00F80
0FC01F80
07E03F00
07E07E00
07E07C00
03F0F800
03F1F800
01FBF000
01FBE000
01FFC000
00FFC000
00FF8000
007F0000
007E0000
007E0000
007E0000
007C0000
007C0000
00FC0000
00FC0000
00FC0000
00F80000
00F80000
01F80000
01F80000
01F80000
01F80000
01F00000
03F00000
03F00000
03F00000
03F00000
ENDCHAR
STARTCHAR 005A
ENCODING 90
SWIDTH 558 0
DWIDTH 31 0
BBX 35 40 2 0
BITMAP
007FFFFFE0
00FFFFFFE0
00FFFFFFE0
00FFFFFFC0
0000001FC0
0000003F80
0000007F00
000000FE00
000001FC00
000001FC00
000003F800
000007F000
00000FE000
00001FC000
00003F8000
00003F8000
00007F0000
0000FE0000
0001FC0000
0003F80000
0007F00000
0007F00000
000FE00000
001FC00000
003F800000
007F000000
00FE000000
00FE000000
01FC000000
03F8000000
07F0000000
0FE0000000
1FC0000000
1FC0000000
3F80000000
7F00000000
FFFFFFF800
FFFFFFF800
FFFFFFF000
FFFFFFF000
ENDCHAR
STARTCHAR 005B
ENCODING 91
SWIDTH 324 0
DWIDTH 18 0
BBX 20 51 3 -8
BITMAP
003FF0
003FF0
007FF0
007FF0
007C00
007800
007800
00F800
00F800
00F800
00F800
00F000
00F000
01F000
01F000
01F000
01E000
01E000
03E000
03E000
03E000
03C000
03C000
07C000
07C000
07C000
078000
078000
0F8000
0F8000
0F8000
0F0000
0F0000
1F0000
1F0000
1F0000
1E0000
1E0000
3E0000
3E0000
3E0000
3C0000
3C0000
7C0000
7C0000
7C0000
7C0000
7FE000
FFE000
FFE000
FFE000
ENDCHAR
STARTCHAR 005C
ENCODING 92
SWIDTH 468 0
DWIDTH 26 0
BBX 15 51 9 -8
BITMAP
F000
F000
F000
F000
7800
7800
7800
7800
3C00
3C00
3C00
3C00
1E00
1E00
1E00
1E00
1E00
0F00
0F00
0F00
0F00
0780
0780
0780
0780
07C0
03C0
03C0
03C0
03C0
01E0
01E0
01E0
01E0
00F0
00F0
00F0
00F0
00F0
0078
0078
0078
0078
003C
003C
003C
003C
003E
001E
001E
001E
ENDCHAR
STARTCHAR 005D
ENCODING 93
SWIDTH 324 0
DWIDTH 18 0
BBX 20 51 1 -8
BITMAP
003FF0
003FF0
007FF0
007FF0
0001F0
0001E0
0001E0
0003E0
0003E0
0003E0
0003C0
0003C0
0007C0
0007C0
0007C0
000780
000780
000F80
000F80
000F80
000F80
000F00
001F00
001F00
001F00
001F00
001E00
001E00
003E00
003E00
003E00
003C00
003C00
007C00
007C00
007C00
007800
007800
00F800
00F800
00F800
00F000
00F000
01F000
01F000
01F000
01E000
7FE000
7FE000
FFE000
FFE000
ENDCHAR
STARTCHAR 005E
ENCODING 94
SWIDTH 612 0
DWIDTH 34 0
BBX 29 29 5 12
BITMAP
00001000
00001800
00003800
00007800
00007800
0000FC00
0001FC00
0001FC00
0003FE00
0007DE00
00079E00
000F8F00
001F0F00
001E0F00
003E0F00
007C0780
00F80780
00F80780
01F003C0
03E003C0
03C003C0
07C003E0
0F8001E0
0F0001E0
1F0001E0
3E0000F0
3C0000F0
7C0000F0
F8000078
ENDCHAR
STARTCHAR 005F
ENCODING 95
SWIDTH 486 0
DWIDTH 27 0
BBX 23 4 2 -4
BITMAP
FFFFFE
FFFFFC
FFFFFC
FFFFFC
ENDCHAR
STARTCHAR 0060
ENCODING 96
SWIDTH 558 0
DWIDTH 31 0
BBX 9 8 18 35
BITMAP
FC00
7E00
3E00
1F00
1F00
0F80
0780
0780
ENDCHAR
STARTCHAR 0061
ENCODING 97
SWIDTH 612 0
DWIDTH 34 0
BBX 29 29 5 0
BITMAP
0003FFF8
000FFFF8
003FFFF8
007FFFF0
00FE01F0
01F801F0
03F001F0
07E003F0
07C003E0
0FC003E0
0F8003E0
1F0007E0
3F0007E0
3E000FC0
3E001FC0
7E003FC0
7C007FC0
7C007FC0
FC00FF80
FC01EF80
FC03CF80
FC078F80
FC0F9F80
FC3F1F00
FFFE1F00
FFFC1F00
7FF83F00
3FE03F00
1F803E00
ENDCHAR
STARTCHAR 0062
ENCODING 98
SWIDTH 612 0
DWIDTH 34 0
BBX 29 43 6 -1
BITMAP
00F80000
00F80000
01F80000
01F00000
01F00000
01F00000
01F00000
03F00000
03F00000
03E00000
03E00000
03E00000
07E00000
07E00000
07C01FC0
07C07FE0
07C0FFF0
0FC1FFF0
0FC3FFF0
0F87C1F8
0F8F81F8
0F9F01F8
0FBE01F0
1FBC01F0
1F7801F0
1FF003F0
1FE003F0
1FC003E0
3FC007E0
3F8007E0
3F0007C0
3E000FC0
3E000F80
7E001F00
7C003F00
7C007E00
7C00FC00
7C01F800
FC03F800
FFFFE000
FFFFC000
FFFF8000
FFFC0000
ENDCHAR
STARTCHAR 0063
ENCODING 99
SWIDTH 486 0
DWIDTH 27 0
BBX 25 29 5 0
BITMAP
0007FF80
001FFF80
007FFF00
00FFFF00
01FC0100
03F00000
07E00000
0FC00000
1F800000
1F000000
3F000000
3E000000
7E000000
7E000000
7C000000
FC000000
FC000000
FC000000
FC000000
FC000000
FC000000
FC000000
FC000000
7E001800
7F00F800
7FFFF000
3FFFF000
1FFFE000
07FF0000
ENDCHAR
STARTCHAR 0064
ENCODING 100
SWIDTH 612 0
DWIDTH 34 0
BBX 32 43 5 -1
BITMAP
0000003F
0000003E
0000003E
0000003E
0000003E
0000007E
0000007C
0000007C
0000007C
0000007C
000000FC
000000F8
000000F8
000000F8
0003FFF8
000FFFF8
003FFFF0
007FFFF0
00FE01F0
01F801F0
03F001F0
07E003E0
07C003E0
0FC003E0
0F8003E0
1F0007E0
3F0007E0
3E000FC0
3E001FC0
7E003FC0
7C007FC0
7C007FC0
FC00FF80
FC01EF80
FC03CF80
FC078F80
FC0F9F80
FC3F1F00
FFFE1F00
FFFC1F00
7FF83F00
3FE03F00
1F803E00
ENDCHAR
STARTCHAR 0065
ENCODING 101
SWIDTH 522 0
DWIDTH 29 0
BBX 24 29 5 0
BITMAP
000FFC
003FFE
007FFE
01FFFF
03F03F
07E03F
07C03F
0F803F
1F003E
1F007E
3E00FC
3E01FC
7C07F8
7C7FE0
7FFFC0
FFFF00
FFF800
FC0000
FC0000
FC0000
FC0000
FC0001
FC0006
7E001E
7F00FE
7FFFFE
3FFFFC
1FFFF0
07FF80
ENDCHAR
STARTCHAR 0066
ENCODING 102
SWIDTH 378 0
DWIDTH 21 0
BBX 27 54 4 -10
BITMAP
00007FE0
0001FFC0
0003FFC0
0007FFC0
000FC000
001F0000
003F0000
003E0000
007C0000
007C0000
00FC0000
00F80000
00F80000
00F80000
1FFFF800
1FFFF800
1FFFF000
3FFFF000
01F00000
01F00000
03F00000
03E00000
03E00000
03E00000
03E00000
07E00000
07C00000
07C00000
07C00000
07C00000
0FC00000
0F800000
0F800000
0F800000
0F800000
1F800000
1F800000
1F000000
1F000000
1F000000
3F000000
3F000000
3E000000
3E000000
3E000000
7E000000
7E000000
7C000000
7C000000
7C000000
FC000000
FC000000
F8000000
F8000000
ENDCHAR
STARTCHAR 0067
ENCODING 103
SWIDTH 594 0
DWIDTH 33 0
BBX 30 41 3 -11
BITMAP
0001FFFC
0007FFFC
000FFFFC
003FFFFC
007F00F8
00FE00F8
01F800F8
01F000F8
03F001F8
07E001F8
07C001F0
0FC003F0
0F8007F0
1F800FF0
1F800FF0
1F001FE0
3F003BE0
3F007BE0
3F00F7E0
3F01F7E0
3F03E7C0
3F07C7C0
3F0F87C0
3FFF0FC0
1FFE0FC0
1FFC0F80
0FF80F80
03C00F80
00000F80
00001F80
00001F00
00001F00
00003F00
00007E00
C0007E00
F801FC00
FFFFF800
FFFFF000
FFFFC000
1FFF0000
00400000
ENDCHAR
STARTCHAR 0068
ENCODING 104
SWIDTH 612 0
DWIDTH 34 0
BBX 29 43 5 0
BITMAP
007C0000
00FC0000
00F80000
00F80000
00F80000
00F80000
01F80000
01F80000
01F00000
01F00000
01F00000
03F00000
03F00000
03E00000
03E00FE0
03E03FF0
07E0FFF0
07E1FFF0
07C3FFF8
07C7E1F8
07C781F8
07CF01F0
0FDE01F0
0FBE01F0
0FBC03F0
0FF803F0
0FF003E0
1FE003E0
1FE003E0
1FC007E0
1F8007E0
1F8007C0
3F0007C0
3E0007C0
3E000FC0
3E000FC0
3E000F80
7E000F80
7E000F80
7C001F80
7C001F80
7C001F00
FC001F00
ENDCHAR
STARTCHAR 0069
ENCODING 105
SWIDTH 288 0
DWIDTH 16 0
BBX 13 40 5 0
BITMAP
00F8
00F8
00F8
01F8
01F0
0000
0000
0000
0000
0000
0000
03E0
03E0
07E0
07E0
07C0
07C0
07C0
0FC0
0FC0
0F80
0F80
0F80
1F80
1F80
1F00
1F00
1F00
3F00
3F00
3E00
3E00
3E00
3E00
7E00
7C00
7C00
7C00
7C00
FC00
ENDCHAR
STARTCHAR 006A
ENCODING 106
SWIDTH 324 0
DWIDTH 18 0
BBX 26 51 -6 -12
BITMAP
000007C0
000007C0
000007C0
00000FC0
00000F80
00000000
00000000
00000000
00000000
00000000
00000000
00001F00
00001F00
00003F00
00003F00
00003E00
00003E00
00003E00
00007E00
00007E00
00007C00
00007C00
00007C00
0000FC00
0000FC00
0000F800
0000F800
0000F800
0000F800
0001F800
0001F000
0001F000
0001F000
0001F000
0003F000
0003E000
0003E000
0003E000
0003E000
0007E000
0007C000
0007C000
000FC000
000F8000
001F8000
003F0000
407E0000
7FFC0000
FFF80000
FFF00000
FFC00000
ENDCHAR
STARTCHAR 006B
ENCODING 107
SWIDTH 558 0
DWIDTH 31 0
BBX 28 43 5 0
BITMAP
00FC0000
00FC0000
00F80000
00F80000
00F80000
00F80000
01F80000
01F00000
01F00000
01F00000
01F00000
03F00000
03E00000
03E00000
03E003F0
03E007E0
07E00FC0
07E01F80
07C03F00
07C07E00
07C0FC00
0FC1F800
0FC3F000
0F87E000
0F8FC000
0F9F8000
1FBF0000
1FFE0000
1F7E0000
1F3F0000
1F1F8000
3F1F8000
3F0FC000
3E07E000
3E03F000
3E03F000
3E01F800
7E00FC00
7C00FC00
7C007E00
7C003F00
7C003F00
FC001F80
ENDCHAR
STARTCHAR 006C
ENCODING 108
SWIDTH 288 0
DWIDTH 16 0
BBX 14 43 5 0
BITMAP
00FC
00FC
00F8
00F8
00F8
00F8
01F8
01F0
01F0
01F0
01F0
03F0
03E0
03E0
03E0
03E0
07E0
07C0
07C0
07C0
07C0
0FC0
0F80
0F80
0F80
0F80
1F80
1F80
1F00
1F00
1F00
3F00
3F00
3E00
3E00
3E00
7E00
7E00
7C00
7C00
7C00
7C00
FC00
ENDCHAR
STARTCHAR 006D
ENCODING 109
SWIDTH 900 0
DWIDTH 50 0
BBX 45 29 5 1
BITMAP
03E01FC007E0
07E07FE01FF0
07C0FFE03FF8
07C1FFF07FF8
07C3FFF0FFF8
07C7C3F1F1F8
0FCF83E3E1F8
0F9F03E7C1F8
0F9E03EF81F8
0FBC03EF01F0
0FF807FE01F0
1FF807FC01F0
1FF007F803F0
1FE007F803F0
1FC007F003E0
1F800FE003E0
3F800FC003E0
3F000FC007E0
3E000F8007E0
3E000F8007C0
3E001F8007C0
7E001F0007C0
7E001F000FC0
7C001F000FC0
7C001F000F80
7C003F000F80
FC003E000F80
FC003E000F80
F8003E001F80
ENDCHAR
STARTCHAR 006E
ENCODING 110
SWIDTH 612 0
DWIDTH 34 0
BBX 29 29 5 1
BITMAP
03E00FE0
03E03FF0
03E0FFF0
07E1FFF0
07C3FFF8
07C7E1F8
07C781F8
07CF01F0
0FDE01F0
0FBE01F0
0FBC03F0
0FF803F0
0FF003E0
1FE003E0
1FE003E0
1FC007E0
1F8007E0
1F8007C0
3F0007C0
3E0007C0
3E000FC0
3E000FC0
3E000F80
7E000F80
7E000F80
7C001F80
7C001F80
7C001F00
FC001F00
ENDCHAR
STARTCHAR 006F
ENCODING 111
SWIDTH 558 0
DWIDTH 31 0
BBX 27 29 5 0
BITMAP
000FFC00
003FFF00
00FFFF80
01FFFFC0
03F01FC0
07E00FC0
0FC007E0
0F8007E0
1F8007E0
1F0007E0
3E0007E0
3E0007E0
7E0007E0
7C0007E0
7C0007C0
FC0007C0
FC000FC0
FC000F80
FC000F80
FC001F00
FC003F00
FC003E00
FC007E00
7E00FC00
7F01F800
7FFFF000
3FFFE000
1FFF8000
07FE0000
ENDCHAR
STARTCHAR 0070
ENCODING 112
SWIDTH 612 0
DWIDTH 34 0
BBX 31 40 4 -10
BITMAP
01F007F0
01F01FF8
01F03FFC
01F07FFC
03F0FFFC
03E1F07E
03E3E07E
03E7C07E
03EF807C
07EF007C
07DE007C
07FC00FC
07F800FC
07F000F8
0FF001F8
0FE001F8
0FC001F0
0F8003F0
0F8003E0
1F8007C0
1F000FC0
1F001F80
1F003F00
1F007E00
3F00FE00
3FFFF800
3FFFF000
3FFFE000
3FFF0000
7E000000
7C000000
7C000000
7C000000
7C000000
FC000000
FC000000
F8000000
F8000000
F8000000
F8000000
ENDCHAR
STARTCHAR 0071
ENCODING 113
SWIDTH 612 0
DWIDTH 34 0
BBX 29 40 5 -10
BITMAP
0003FFF8
000FFFF8
003FFFF8
007FFFF0
00FE01F0
01F801F0
03F001F0
07E003F0
07C003E0
0FC003E0
0F8003E0
1F0007E0
3F0007E0
3E000FC0
3E001FC0
7E003FC0
7C007FC0
7C007FC0
FC00FF80
FC01EF80
FC03CF80
FC078F80
FC0F9F80
FC3F1F00
FFFE1F00
FFFC1F00
7FF81F00
3FE03F00
1F803E00
00003E00
00003E00
00003E00
00007E00
00007C00
00007C00
00007C00
00007C00
0000FC00
0000FC00
0000F800
ENDCHAR
STARTCHAR 0072
ENCODING 114
SWIDTH 468 0
DWIDTH 26 0
BBX 25 29 5 1
BITMAP
03E00F80
03E03F80
07E07F00
07E0FF00
07C1FF00
07C3FF00
07C7E000
0FCF8000
0FDF0000
0F9E0000
0FBC0000
0FF80000
1FF80000
1FF00000
1FE00000
1FC00000
1F800000
3F800000
3F000000
3E000000
3E000000
3E000000
3E000000
7E000000
7C000000
7C000000
7C000000
7C000000
FC000000
ENDCHAR
STARTCHAR 0073
ENCODING 115
SWIDTH 486 0
DWIDTH 27 0
BBX 23 30 4 0
BITMAP
003FF8
00FFFE
01FFFE
03FFFE
03F00E
07E000
07E000
07E000
07E000
07F000
03F000
03F800
01FC00
00FE00
007F00
003F80
001FC0
000FE0
0007E0
0003F0
0003F0
0003F0
0003F0
4003F0
F807E0
FFFFE0
FFFFC0
FFFF80
1FFE00
004000
ENDCHAR
STARTCHAR 0074
ENCODING 116
SWIDTH 378 0
DWIDTH 21 0
BBX 18 35 6 -1
BITMAP
00F000
01F000
03F000
03E000
03E000
03E000
7FFFC0
FFFFC0
FFFF80
FFFF80
07C000
0FC000
0FC000
0F8000
0F8000
0F8000
1F8000
1F8000
1F0000
1F0000
1F0000
3F0000
3F0000
3E0000
3E0000
7E0000
7E0000
7E0000
7E0000
7E0000
7E0000
7FF800
3FF800
1FF000
0FF000
ENDCHAR
STARTCHAR 0075
ENCODING 117
SWIDTH 612 0
DWIDTH 34 0
BBX 28 29 6 -1
BITMAP
0FC001F0
0FC001F0
0F8003F0
0F8003F0
0F8003E0
1F8003E0
1F8003E0
1F0007E0
1F0007E0
1F0007C0
3F0007C0
3F000FC0
3E001FC0
3E001FC0
3E003F80
7E007F80
7E00FF80
7C00EF80
7C01FF80
7C03DF00
FC079F00
FC0F9F00
FC1F1F00
FC3E3F00
FFFC3E00
FFF83E00
FFF03E00
7FE07E00
3F807E00
ENDCHAR
STARTCHAR 0076
ENCODING 118
SWIDTH 522 0
DWIDTH 29 0
BBX 27 29 7 0
BITMAP
F80003E0
780007C0
7C0007C0
7C000F80
7C001F00
7C001F00
7C003E00
7C003E00
7C007C00
3C00F800
3E00F800
3E01F000
3E01F000
3E03E000
3E07C000
3E07C000
3E0F8000
1E0F0000
1F1F0000
1F3E0000
1F3E0000
1F7C0000
1F780000
1FF80000
1FF00000
0FE00000
0FE00000
0FC00000
0FC00000
ENDCHAR
STARTCHAR 0077
ENCODING 119
SWIDTH 774 0
DWIDTH 43 0
BBX 39 29 7 0
BITMAP
F8007E001E
F8007E003E
F800FE007C
F800FE007C
F801FE00F8
F801FE00F8
F803FE01F0
F803FE01F0
7C07DE03E0
7C07DE03E0
7C0F9E07C0
7C0F9E07C0
7C1F1E0F80
7C1F1E0F80
7C3E1E1F00
7C3E1E3F00
7C7C1E3E00
7C7C1E7E00
7CF81E7C00
3EF81EFC00
3FF01EF800
3FF01FF800
3FE01FF000
3FE01FF000
3FC01FE000
3FC01FE000
3F801FC000
3F801FC000
3F001F8000
ENDCHAR
STARTCHAR 0078
ENCODING 120
SWIDTH 540 0
DWIDTH 30 0
BBX 31 29 2 0
BITMAP
03F0003E
01F0007C
00F800F8
00F801F0
007C03E0
007C07E0
003E0FC0
003E1F80
001F1F00
001FBE00
000FFC00
000FF800
0007F000
0007E000
0007E000
000FF000
001FF000
003FF800
007CF800
00F8FC00
01F87C00
03F07E00
07E03E00
0FC03F00
1F801F00
1F001F80
3E000F80
7C000FC0
F80007C0
ENDCHAR
STARTCHAR 0079
ENCODING 121
SWIDTH 540 0
DWIDTH 30 0
BBX 29 40 6 -11
BITMAP
7E0000F8
7E0001F0
3E0001F0
3E0003E0
3E0007C0
3E0007C0
3F000F80
3F001F00
1F001F00
1F003E00
1F003E00
1F007C00
1F80F800
1F80F800
0F81F000
0F81F000
0F83E000
0F87C000
0FC7C000
0FCF8000
07DF0000
07DF0000
07FE0000
07FE0000
07FC0000
07F80000
03F80000
03F00000
03F00000
03E00000
07C00000
07C00000
0F800000
1F000000
1F000000
3E000000
3E000000
7C000000
F8000000
F8000000
ENDCHAR
STARTCHAR 007A
ENCODING 122
SWIDTH 522 0
DWIDTH 29 0
BBX 28 29 3 0
BITMAP
03FFFFF0
03FFFFF0
03FFFFF0
07FFFFF0
00000FE0
00001FC0
00003F80
00007F00
0000FE00
0001FC00
0003F800
0003F000
0007E000
000FC000
001F8000
003F8000
007F0000
00FE0000
01FC0000
03F80000
07F00000
0FE00000
1FC00000
3F800000
7F000000
7FFFFF80
FFFFFF00
FFFFFF00
FFFFFF00
ENDCHAR
STARTCHAR 007B
ENCODING 123
SWIDTH 324 0
DWIDTH 18 0
BBX 18 51 5 -8
BITMAP
0003C0
000FC0
003FC0
007FC0
007E00
00F800
00F800
01F000
01F000
01F000
01F000
01F000
01F000
01F000
01F000
01F000
01F000
01E000
01E000
03E000
03C000
07C000
0F8000
FF0000
FC0000
FC0000
FE0000
3E0000
1F0000
0F0000
0F0000
0F0000
0F0000
1F0000
1F0000
1E0000
3E0000
3E0000
3E0000
7C0000
7C0000
FC0000
F80000
F80000
F80000
F80000
FC0000
7F8000
7F8000
1F0000
070000
ENDCHAR
STARTCHAR 007C
ENCODING 124
SWIDTH 234 0
DWIDTH 13 0
BBX 14 51 3 -8
BITMAP
003C
0078
0078
0078
0078
0078
00F0
00F0
00F0
00F0
00F0
01E0
01E0
01E0
01E0
01E0
03E0
03C0
03C0
03C0
03C0
07C0
0780
0780
0780
0780
0780
0F00
0F00
0F00
0F00
0F00
1E00
1E00
1E00
1E00
1E00
3C00
3C00
3C00
3C00
3C00
7800
7800
7800
7800
7800
F000
F000
F000
F000
ENDCHAR
STARTCHAR 007D
ENCODING 125
SWIDTH 306 0
DWIDTH 17 0
BBX 18 50 1 -8
BITMAP
003800
003E00
007F80
007F80
000FC0
0007C0
0007C0
0007C0
0007C0
000F80
000F80
000F80
001F00
001F00
001E00
003E00
003E00
003C00
003C00
003C00
003C00
003E00
001F00
001FC0
000FC0
000FC0
003FC0
007E00
00F800
00F000
01F000
01E000
01E000
03E000
03E000
03E000
03E000
03E000
03E000
03E000
03E000
03E000
03E000
07C000
07C000
0F8000
7F8000
FF0000
FC0000
F00000
ENDCHAR
STARTCHAR 007E
ENCODING 126
SWIDTH 612 0
DWIDTH 34 0
BBX 30 10 5 11
BITMAP
01F00000
07FC003C
1FFE003C
1FFF803C
3E3FE078
7C0FF0F8
7807FFF0
F801FFE0
F0007FC0
00001F00
ENDCHAR
STARTCHAR 00A0
ENCODING 160
SWIDTH 612 0
DWIDTH 34 0
BBX 0 0 0 0
BITMAP
ENDCHAR
STARTCHAR 00A1
ENCODING 161
SWIDTH 306 0
DWIDTH 17 0
BBX 13 40 4 -11
BITMAP
00F8
01F8
01F0
01F0
01F0
0000
0000
0000
0000
0000
0000
03C0
03C0
03C0
07C0
07C0
0780
0780
0780
0F80
0F80
0F80
0F00
1F00
1F00
1F00
1F00
1F00
3E00
3E00
3E00
3E00
7E00
7C00
7C00
7C00
7C00
FC00
F800
F800
ENDCHAR
STARTCHAR 00A2
ENCODING 162
SWIDTH 612 0
DWIDTH 34 0
BBX 25 40 9 1
BITMAP
0000E000
0000C000
0001C000
0001C000
0003FE00
000FFF80
003FFF00
00FFFF00
01FF8700
03FB8000
07E38000
0FC30000
0F830000
1F870000
1F070000
3F070000
3E060000
7E060000
7C0E0000
7C0E0000
FC0E0000
FC0C0000
FC0C0000
FC1C0000
FC1C0000
FC1C0000
FC180000
FC180000
FE381800
7E387800
7FBBF000
3FFFF000
1FFFF000
0FFF8000
03FC0000
00700000
00700000
00600000
00600000
00E00000
ENDCHAR
STARTCHAR 00A3
ENCODING 163
SWIDTH 612 0
DWIDTH 34 0
BBX 30 41 7 0
BITMAP
00001FE0
00007FFC
0000FFFC
0001FFF8
0003F038
0007C000
000F8000
000F8000
000F0000
001F0000
001F0000
001F0000
003F0000
003E0000
003E0000
003E0000
007E0000
007E0000
0FFFF000
0FFFF000
0FFFF000
0FFFE000
00FC0000
00F80000
00F80000
00F80000
01F80000
01F80000
01F00000
01F00000
01F00000
03E00000
03E00000
07C00000
0F800000
3F000000
7FFFFE00
FFFFFE00
FFFFFE00
FFFFFC00
FFFFFC00
ENDCHAR
STARTCHAR 00A4
ENCODING 164
SWIDTH 612 0
DWIDTH 34 0
BBX 34 30 4 5
BITMAP
0100000000
0380000180
07C00007C0
03C0FE0F80
03E7FF9F00
01FFFFFC00
00FFFFF800
007F07F000
00FC01F000
00F000F800
01E000F800
03E0007800
03C0007800
03C0007800
0780007800
0780007800
078000F000
078000F000
078001F000
07C001E000
07C003C000
03E00FC000
03F83F8000
07FFFFC000
1FFFFFE000
3E7FF9F000
7C0FC0F000
F800007800
6000007000
0000002000
ENDCHAR
STARTCHAR 00A5
ENCODING 165
SWIDTH 612 0
DWIDTH 34 0
BBX 32 40 9 0
BITMAP
7C00003F
7E00007E
3E00007C
3F0000F8
1F0001F0
1F8003E0
1F8007C0
0FC00FC0
0FC00F80
07E01F00
07E03E00
03F07C00
03F0F800
01F9F800
01FBF000
00FBE000
00FFC000
007F8000
007F0000
003E0000
3FFFFE00
3FFFFE00
7FFFFC00
7FFFFC00
007C0000
007C0000
007C0000
FFFFF800
FFFFF800
FFFFF800
FFFFF800
00F80000
01F80000
01F00000
01F00000
01F00000
01F00000
03F00000
03E00000
03E00000
ENDCHAR
STARTCHAR 00A6
ENCODING 166
SWIDTH 234 0
DWIDTH 13 0
BBX 14 51 3 -8
BITMAP
003C
0078
0078
0078
0078
0078
00F0
00F0
00F0
00F0
00F0
01E0
01E0
01E0
01E0
01E0
03C0
03C0
03C0
03C0
0000
0000
0000
0000
0000
0000
0000
0000
0000
0000
0000
0F00
1E00
1E00
1E00
1E00
1E00
3C00
3C00
3C00
3C00
3C00
7800
7800
7800
7800
7800
F000
F000
F000
F000
ENDCHAR
STARTCHAR 00A7
ENCODING 167
SWIDTH 630 0
DWIDTH 35 0
BBX 30 50 5 -9
BITMAP
0000FFF0
0007FFFC
001FFFFC
003FFFF8
007F0078
00FC0000
00F80000
01F00000
01F00000
01F00000
01F00000
01F00000
01F80000
00FC0000
00FF0000
007FC000
007FF000
00FFFC00
01F7FE00
03E1FF80
03E0FFC0
07C03FC0
07800FE0
0F8007E0
0F8003E0
0F8003E0
0FC003E0
0FE003C0
07F007C0
07FC0FC0
03FF1F80
01FFFF00
007FFE00
001FFC00
0007FC00
0001FE00
00007F00
00003F00
00001F00
00001F80
00001F80
00001F00
00001F00
40003F00
70007E00
7E01FC00
FFFFF800
FFFFF000
7FFFE000
07FF0000
ENDCHAR
STARTCHAR 00A8
ENCODING 168
SWIDTH 558 0
DWIDTH 31 0
BBX 15 5 16 35
BITMAP
F81E
F81E
F83E
F03E
F03E
ENDCHAR
STARTCHAR 00A9
ENCODING 169
SWIDTH 846 0
DWIDTH 47 0
BBX 41 43 7 -1
BITMAP
0000FF800000
0007FFF00000
001FFFFC0000
007F007F0000
00F8000F8000
01E00003C000
03C00001E000
07800000F000
0F0000007800
1E0007E03C00
1C003FFC1C00
3C00FFFC1E00
3801F81C0E00
7803E0040F00
7007C0000700
700780000700
F00F00000700
E00F00000380
E01E00000380
E01E00000380
E03C00000380
E03C00000380
E03C00000380
E03C00000380
E03C00000380
E03C00000780
703C00000700
703E00000700
701E00000F00
381F00200E00
380FC0E01E00
1C07FFC01C00
1E03FFC03C00
0E00FE007800
0F0000007800
07800000F000
03E00003E000
01F00007C000
00FC003F0000
003FFFFE0000
000FFFF80000
0003FFE00000
000008000000
ENDCHAR
STARTCHAR 00AA
ENCODING 170
SWIDTH 396 0
DWIDTH 22 0
BBX 21 21 7 19
BITMAP
003F80
00FFF8
03FFF8
07C1F8
0F80F0
1F00F0
1E01F0
3E01F0
3C03F0
7C07E0
7C0FE0
781FE0
F839E0
F87BE0
F8F3E0
F9E3C0
FFC7C0
FF87C0
FF0FC0
7E0FC0
3C0F80
ENDCHAR
STARTCHAR 00AB
ENCODING 171
SWIDTH 522 0
DWIDTH 29 0
BBX 25 24 6 2
BITMAP
00080000
001C0300
003E0780
007C0F80
00F81F00
01F03E00
03E07C00
07C1F800
0F83E000
3F07C000
7E0F8000
FC1F0000
F83F0000
F81F0000
7C0F8000
3C0F8000
3E07C000
1F03C000
0F03E000
0F81E000
0780F000
03C0F800
03C07800
01803000
ENDCHAR
STARTCHAR 00AC
ENCODING 172
SWIDTH 612 0
DWIDTH 34 0
BBX 29 13 7 9
BITMAP
FFFFFFF8
FFFFFFF8
FFFFFFF8
FFFFFFF0
000000F0
000000F0
000000F0
000000F0
000001E0
000001E0
000001E0
000001E0
000001E0
ENDCHAR
STARTCHAR 00AD
ENCODING 173
SWIDTH 306 0
DWIDTH 17 0
BBX 12 4 6 15
BITMAP
FFF0
FFF0
FFF0
FFE0
ENDCHAR
STARTCHAR 00AE
ENCODING 174
SWIDTH 630 0
DWIDTH 35 0
BBX 24 24 11 16
BITMAP
00FE00
03FFC0
07FFE0
1F81F0
1E7F78
3C7FBC
7871DE
7061CE
F061CE
E0E1C7
E0E387
E0FF07
E0FC07
E0CE07
E1CE07
71C60E
71C70E
79C71C
3D833C
1E0078
0F81F0
07FFE0
03FF80
007E00
ENDCHAR
STARTCHAR 00B0
ENCODING 176
SWIDTH 270 0
DWIDTH 15 0
BBX 9 9 10 33
BITMAP
3E00
7F00
E380
C180
C180
C180
6380
7F00
1E00
ENDCHAR
STARTCHAR 00B1
ENCODING 177
SWIDTH 612 0
DWIDTH 34 0
BBX 33 32 3 0
BITMAP
00003C0000
00003C0000
00003C0000
00003C0000
00003C0000
0000780000
0000780000
0000780000
0000780000
0000780000
0FFFFFFF80
0FFFFFFF80
0FFFFFFF00
1FFFFFFF00
0000F00000
0001E00000
0001E00000
0001E00000
0001E00000
0001E00000
0003C00000
0003C00000
0003C00000
0003C00000
0000000000
0000000000
0000000000
0000000000
FFFFFFF800
FFFFFFF800
FFFFFFF800
FFFFFFF800
ENDCHAR
STARTCHAR 00B2
ENCODING 178
SWIDTH 378 0
DWIDTH 21 0
BBX 18 21 7 20
BITMAP
03FC00
1FFF00
1FFF80
1C0FC0
1007C0
0007C0
0007C0
000F80
001F00
007E00
00FC00
01F000
07E000
0F8000
1F0000
3E0000
7C0000
FFFF00
FFFF00
FFFF00
FFFF00
ENDCHAR
STARTCHAR 00B3
ENCODING 179
SWIDTH 396 0
DWIDTH 22 0
BBX 17 21 8 19
BITMAP
07FC00
0FFF00
1FFF80
181F80
000F80
000F80
001F00
007E00
07F800
07E000
0FF800
007E00
003F00
001F00
001F00
001F00
003E00
E07E00
FFFC00
FFF800
3FC000
ENDCHAR
STARTCHAR 00B4
ENCODING 180
SWIDTH 558 0
DWIDTH 31 0
BBX 12 8 20 35
BITMAP
03F0
07E0
0FC0
1F00
3E00
7C00
7800
F000
ENDCHAR
STARTCHAR 00B5
ENCODING 181
SWIDTH 612 0
DWIDTH 34 0
BBX 30 37 4 -8
BITMAP
01F0007C
01F0007C
03F0007C
03F0007C
03E000FC
03E000FC
03E000F8
07E000F8
07E000F8
07C001F8
07C001F8
07C001F0
0FC003F0
0FC007F0
0F8007F0
0F800FF0
0F801FE0
1F801FE0
1F803BE0
1F007FE0
1F00F7E0
1F01F7C0
3F03E7C0
3F07E7C0
3FFFCFC0
3FFF8FC0
3FFF0F80
7FFE0F80
7FF80F80
7C000000
7C000000
7C000000
FC000000
FC000000
F8000000
F8000000
F8000000
ENDCHAR
STARTCHAR 00B6
ENCODING 182
SWIDTH 612 0
DWIDTH 34 0
BBX 24 48 9 -8
BITMAP
03FFFF
1FFFFF
3FFFFF
7FFF0F
7FFF0E
FFFF0E
FFFF0E
FFFF1E
FFFE1E
FFFE1C
FFFE1C
FFFE1C
7FFE3C
7FFC3C
3FFC38
3FFC38
1FFC38
0FFC78
03F878
007870
003870
007870
0078F0
0070F0
0070E0
0070E0
00F0E0
00F1E0
00E1E0
00E1C0
00E1C0
01E1C0
01E1C0
01C3C0
01C380
01C380
01C380
03C380
038780
038700
038700
038700
078700
070F00
070E00
070E00
070E00
0F0E00
ENDCHAR
STARTCHAR 00B8
ENCODING 184
SWIDTH 576 0
DWIDTH 32 0
BBX 9 11 11 -11
BITMAP
0600
0E00
1C00
3E00
0F00
0780
0780
0F80
FF00
FF00
FC00
ENDCHAR
STARTCHAR 00B9
ENCODING 185
SWIDTH 378 0
DWIDTH 21 0
BBX 8 21 13 20
BITMAP
01
FF
FF
FF
1E
1E
3E
3E
3E
3C
3C
7C
7C
7C
78
78
F8
F8
F8
F0
F0
ENDCHAR
STARTCHAR 00BA
ENCODING 186
SWIDTH 378 0
DWIDTH 21 0
BBX 21 22 6 19
BITMAP
001F80
007FE0
01FFF0
03FFF8
07E3F8
0F81F8
1F00F8
3E00F8
3E00F8
7C00F8
7C01F0
7C01F0
F801F0
F803E0
F807E0
F807C0
FC0F80
FE3F00
FFFE00
7FFC00
3FF000
0FC000
ENDCHAR
STARTCHAR 00BB
ENCODING 187
SWIDTH 522 0
DWIDTH 29 0
BBX 26 23 3 3
BITMAP
0700E000
0781E000
0780F000
03C07800
03E07800
01E03C00
01F03E00
00F81E00
00F81F00
007C0F80
003E0F80
003E07C0
007C0F80
00F81F00
01F07E00
03E0FC00
07C1F000
0F83E000
1E07C000
7C0F8000
F81F0000
F01E0000
600C0000
ENDCHAR
STARTCHAR 00BC
ENCODING 188
SWIDTH 846 0
DWIDTH 47 0
BBX 41 42 5 -1
BITMAP
001E00000F80
01FC00001F00
03FC00003E00
03FC00007C00
007C0000F800
007C0001F000
00780003F000
00780003E000
00F80007C000
00F8000F8000
00F8001F0000
00F0003E0000
00F0007C0000
01F000FC0000
01F000F80000
01F001F00000
01E003E00000
01E007C00000
03E00F800000
03E01F000000
03E03F000000
00003E003F00
00007C007E00
0000F800FE00
0001F003FE00
0003E007FE00
0007C00FBE00
000FC01F3C00
001F803C3C00
001F00787C00
003E00F07C00
007C01E07C00
00F803FFFF80
01F003FFFF80
03F003FFFF00
07E003FFFF00
07C00000F800
0F800000F000
1F000000F000
3E000001F000
7C000001F000
FC0000000000
ENDCHAR
STARTCHAR 00BD
ENCODING 189
SWIDTH 846 0
DWIDTH 47 0
BBX 42 42 5 0
BITMAP
007C00001F00
03FC00003F00
03FC00007E00
03F80000FC00
00780000F800
00780001F000
00F80003E000
00F80007C000
00F0000FC000
00F0001F8000
00F0003F0000
01F0003E0000
01F0007C0000
01E000F80000
01E001F00000
01E003F00000
03E007E00000
03E00FC00000
03E00F800000
03C01F000000
03C03E03FC00
00007C1FFF00
0000F81FFF80
0001F81C0FC0
0003F01007C0
0003E00007C0
0007C00007C0
000F80000F80
001F00001F00
003E00003E00
007E0000FC00
00FC0001F000
00F80007E000
01F0000F8000
03E0001F0000
07C0003E0000
0F80007C0000
1F8000FFFF00
3F0000FFFF00
3E0000FFFF00
7C0000FFFF00
F80000000000
ENDCHAR
STARTCHAR 00BE
ENCODING 190
SWIDTH 846 0
DWIDTH 47 0
BBX 41 41 6 -1
BITMAP
07FC00000F80
0FFF00001F00
1FFF80003E00
181F80007C00
000F8000FC00
000F8001F800
000F0001F000
001F0003E000
007E0007C000
07F8000F8000
07E0001F0000
0FF8003E0000
007E007E0000
001F00FC0000
001F00F80000
001F01F00000
003F03E00000
E07E07C00000
FFFC0F800000
FFF81F000000
FFC03F000000
00007E007E00
00007C00FE00
0000F801FC00
0001F003FC00
0003E007FC00
0007C01F7C00
000F803E7C00
001F80787800
003F00F07800
003E01E0F800
007C03C0F800
00F807FFFF00
01F007FFFF00
03E007FFFF00
07E007FFFE00
0FC00001F000
0F800001F000
1F000001E000
3E000001E000
7C000003E000
ENDCHAR
STARTCHAR 00BF
ENCODING 191
SWIDTH 450 0
DWIDTH 25 0
BBX 22 40 2 -12
BITMAP
0000FC
0000F8
0000F8
0000F8
0001F8
000000
000000
000000
000000
000000
0003F0
0003E0
0003E0
0003E0
0007C0
0007C0
000F80
001F80
003F00
007E00
00FC00
01F800
03F000
07E000
0FC000
1F8000
3F0000
7E0000
7C0000
7C0000
FC0000
FC0000
FC0000
FC0000
FC0008
FE0030
7FFFF0
3FFFF0
1FFFF0
07FFC0
ENDCHAR
STARTCHAR 00C0
ENCODING 192
SWIDTH 666 0
DWIDTH 37 0
BBX 36 51 1 0
BITMAP
000007E000
000003F000
000001F000
000001F000
000000F800
0000007800
0000003C00
0000003C00
0000000000
0000000000
0000000000
0000000000
000003F000
000007F800
000007F800
00000FF800
00000FF800
00001FF800
00001FF800
00003EFC00
00007EFC00
00007CFC00
0000FCFC00
0000F87C00
0001F87E00
0001F07E00
0003F07E00
0007E07E00
0007C03E00
000FC03F00
000F803F00
001F803F00
001F003F00
003F001F00
007E001F80
007C001F80
00FC001F80
00FFFFFF80
01FFFFFF80
01FFFFFFC0
03FFFFFFC0
07E0000FC0
07C0000FC0
0FC00007C0
0F800007E0
1F800007E0
1F000007E0
3E000007E0
7E000003E0
7C000003E0
FC000003F0
ENDCHAR
STARTCHAR 00C1
ENCODING 193
SWIDTH 666 0
DWIDTH 37 0
BBX 36 51 1 0
BITMAP
00000007E0
0000000FC0
0000001F80
0000003F00
0000007C00
0000007800
000000F000
000001E000
0000000000
0000000000
0000000000
0000000000
000003F000
000007F800
000007F800
00000FF800
00000FF800
00001FF800
00001FF800
00003EFC00
00007EFC00
00007CFC00
0000FCFC00
0000F87C00
0001F87E00
0001F07E00
0003F07E00
0007E07E00
0007C03E00
000FC03F00
000F803F00
001F803F00
001F003F00
003F001F00
007E001F80
007C001F80
00FC001F80
00FFFFFF80
01FFFFFF80
01FFFFFFC0
03FFFFFFC0
07E0000FC0
07C0000FC0
0FC00007C0
0F800007E0
1F800007E0
1F000007E0
3E000007E0
7E000003E0
7C000003E0
FC000003F0
ENDCHAR
STARTCHAR 00C2
ENCODING 194
SWIDTH 666 0
DWIDTH 37 0
BBX 36 51 1 0
BITMAP
000000FE00
000001FE00
000003FE00
000007DF00
00000F8F00
00001F0F80
00003E0780
00007C03C0
0000000000
0000000000
0000000000
0000000000
000003F000
000007F800
000007F800
00000FF800
00000FF800
00001FF800
00001FF800
00003EFC00
00007EFC00
00007CFC00
0000FCFC00
0000F87C00
0001F87E00
0001F07E00
0003F07E00
0007E07E00
0007C03E00
000FC03F00
000F803F00
001F803F00
001F003F00
003F001F00
007E001F80
007C001F80
00FC001F80
00FFFFFF80
01FFFFFF80
01FFFFFFC0
03FFFFFFC0
07E0000FC0
07C0000FC0
0FC00007C0
0F800007E0
1F800007E0
1F000007E0
3E000007E0
7E000003E0
7C000003E0
FC000003F0
ENDCHAR
STARTCHAR 00C3
ENCODING 195
SWIDTH 666 0
DWIDTH 37 0
BBX 36 50 1 0
BITMAP
00000781C0
00000FE1C0
00001FF3C0
00003FFFC0
000038FF80
0000787F00
0000781E00
0000000000
0000000000
0000000000
0000000000
000003F000
000007F800
000007F800
00000FF800
00000FF800
00001FF800
00001FF800
00003EFC00
00007EFC00
00007CFC00
0000FCFC00
0000F87C00
0001F87E00
0001F07E00
0003F07E00
0007E07E00
0007C03E00
000FC03F00
000F803F00
001F803F00
001F003F00
003F001F00
007E001F80
007C001F80
00FC001F80
00FFFFFF80
01FFFFFF80
01FFFFFFC0
03FFFFFFC0
07E0000FC0
07C0000FC0
0FC00007C0
0F800007E0
1F800007E0
1F000007E0
3E000007E0
7E000003E0
7C000003E0
FC000003F0
ENDCHAR
STARTCHAR 00C4
ENCODING 196
SWIDTH 666 0
DWIDTH 37 0
BBX 36 48 1 0
BITMAP
00001F03C0
00001F07C0
00001E07C0
00001E07C0
00003E07C0
0000000000
0000000000
0000000000
0000000000
000003F000
000007F800
000007F800
00000FF800
00000FF800
00001FF800
00001FF800
00003EFC00
00007EFC00
00007CFC00
0000FCFC00
0000F87C00
0001F87E00
0001F07E00
0003F07E00
0007E07E00
0007C03E00
000FC03F00
000F803F00
001F803F00
001F003F00
003F001F00
007E001F80
007C001F80
00FC001F80
00FFFFFF80
01FFFFFF80
01FFFFFFC0
03FFFFFFC0
07E0000FC0
07C0000FC0
0FC00007C0
0F800007E0
1F800007E0
1F000007E0
3E000007E0
7E000003E0
7C000003E0
FC000003F0
ENDCHAR
STARTCHAR 00C5
ENCODING 197
SWIDTH 684 0
DWIDTH 38 0
BBX 36 48 1 0
BITMAP
000000E000
000003F800
0000031800
0000060C00
0000060C00
0000060C00
0000061C00
000003B800
000003F800
000003F800
000007F800
000007F800
00000FF800
00000FF800
00001FFC00
00001FFC00
00003EFC00
00007EFC00
00007CFC00
0000FCFE00
0000F87E00
0001F87E00
0001F07E00
0003E07E00
0007E03F00
0007C03F00
000FC03F00
000F803F00
001F803F00
003F001F80
003E001F80
007E001F80
007C001F80
00FC000F80
00FFFFFF80
01FFFFFFC0
03FFFFFFC0
03FFFFFFC0
07E00007C0
07C00007C0
0FC00007E0
0F800007E0
1F800007E0
3F000003E0
3E000003E0
7E000003F0
7C000003F0
FC000003F0
ENDCHAR
STARTCHAR 00C6
ENCODING 198
SWIDTH 882 0
DWIDTH 49 0
BBX 54 40 0 0
BITMAP
00000003FFFFFC
00000007FFFFF8
0000000FFFFFF8
0000000FFFFFF8
0000001FF00000
0000003FF00000
0000007FF00000
0000007FF00000
000000FBF00000
000001FBE00000
000003F3E00000
000003E7E00000
000007E7E00000
00000FC7E00000
00001F87C00000
00001F07C00000
00003F0FC00000
00007E0FFFFE00
0000FC0FFFFE00
0000F80FFFFE00
0001F80FFFFE00
0003F00F800000
0007E01F800000
0007C01F800000
000FC01F000000
001F801F000000
003FFFFF000000
007FFFFF000000
007FFFFF000000
00FFFFFF000000
01F8003E000000
03F0003E000000
03E0007E000000
07E0007E000000
0FC0007E000000
1F80007C000000
1F00007FFFFF00
3F0000FFFFFF00
7E0000FFFFFE00
FC0000FFFFFE00
ENDCHAR
STARTCHAR 00C7
ENCODING 199
SWIDTH 666 0
DWIDTH 37 0
BBX 36 51 6 -11
BITMAP
00001FFE00
0000FFFFF0
0003FFFFE0
000FFFFFE0
001FF003E0
007F800020
00FE000000
01FC000000
03F8000000
03F0000000
07E0000000
0FC0000000
0FC0000000
1F80000000
1F00000000
3F00000000
3F00000000
7E00000000
7E00000000
7C00000000
7C00000000
FC00000000
FC00000000
FC00000000
FC00000000
FC00000000
FC00000000
FC00000000
FC00000000
FC00000000
FC00000000
7E00000000
7E00000000
7F00000400
3F80001C00
1FE001F800
1FFFFFF800
07FFFFF800
03FFFFC000
00FFFC0000
0007000000
0007000000
000E000000
001F800000
0003C00000
0001E00000
0001E00000
0001E00000
0043C00000
007FC00000
007F000000
ENDCHAR
STARTCHAR 00C8
ENCODING 200
SWIDTH 540 0
DWIDTH 30 0
BBX 30 51 5 1
BITMAP
0003F000
0001F000
0000F800
0000F800
00007C00
00003C00
00003E00
00001E00
00000000
00000000
00000000
00FFFFFC
00FFFFFC
01FFFFF8
01FFFFF8
01F80000
01F00000
01F00000
03F00000
03F00000
03F00000
03E00000
03E00000
07E00000
07E00000
07E00000
07C00000
07C00000
0FFFFE00
0FFFFE00
0FFFFE00
0FFFFE00
0F800000
1F800000
1F800000
1F800000
1F000000
1F000000
1F000000
3F000000
3F000000
3F000000
3E000000
3E000000
7E000000
7E000000
7E000000
7FFFFF00
7FFFFF00
FFFFFF00
FFFFFE00
ENDCHAR
STARTCHAR 00C9
ENCODING 201
SWIDTH 540 0
DWIDTH 30 0
BBX 30 51 5 1
BITMAP
000003F0
000007E0
000007C0
00000F80
00001F00
00003E00
00007C00
00007800
00000000
00000000
00000000
00FFFFFC
00FFFFFC
01FFFFF8
01FFFFF8
01F80000
01F00000
01F00000
03F00000
03F00000
03F00000
03E00000
03E00000
07E00000
07E00000
07E00000
07C00000
07C00000
0FFFFE00
0FFFFE00
0FFFFE00
0FFFFE00
0F800000
1F800000
1F800000
1F800000
1F000000
1F000000
1F000000
3F000000
3F000000
3F000000
3E000000
3E000000
7E000000
7E000000
7E000000
7FFFFF00
7FFFFF00
FFFFFF00
FFFFFE00
ENDCHAR
STARTCHAR 00CA
ENCODING 202
SWIDTH 540 0
DWIDTH 30 0
BBX 30 51 5 1
BITMAP
00003F80
00007F80
0000FFC0
0001F3C0
0001E3E0
0003C1E0
000781F0
000F00F0
00000000
00000000
00000000
00FFFFFC
00FFFFFC
01FFFFF8
01FFFFF8
01F80000
01F00000
01F00000
03F00000
03F00000
03F00000
03E00000
03E00000
07E00000
07E00000
07E00000
07C00000
07C00000
0FFFFE00
0FFFFE00
0FFFFE00
0FFFFE00
0F800000
1F800000
1F800000
1F800000
1F000000
1F000000
1F000000
3F000000
3F000000
3F000000
3E000000
3E000000
7E000000
7E000000
7E000000
7FFFFF00
7FFFFF00
FFFFFF00
FFFFFE00
ENDCHAR
STARTCHAR 00CB
ENCODING 203
SWIDTH 540 0
DWIDTH 30 0
BBX 30 48 5 0
BITMAP
0003C0F8
0007C0F0
0007C0F0
0007C1F0
000781F0
00000000
00000000
00000000
00FFFFFC
00FFFFFC
01FFFFF8
01FFFFF8
01F80000
01F00000
01F00000
03F00000
03F00000
03F00000
03E00000
03E00000
07E00000
07E00000
07E00000
07C00000
07C00000
0FFFFE00
0FFFFE00
0FFFFE00
0FFFFE00
0F800000
1F800000
1F800000
1F800000
1F000000
1F000000
1F000000
3F000000
3F000000
3F000000
3E000000
3E000000
7E000000
7E000000
7E000000
7FFFFF00
7FFFFF00
FFFFFF00
FFFFFE00
ENDCHAR
STARTCHAR 00CC
ENCODING 204
SWIDTH 288 0
DWIDTH 16 0
BBX 16 51 5 0
BITMAP
01F0
01F8
00F8
007C
003C
003E
001E
000F
0000
0000
0000
00F8
00F8
01F8
01F8
01F8
01F0
01F0
03F0
03F0
03F0
03E0
03E0
07E0
07E0
07E0
07C0
07C0
0FC0
0FC0
0FC0
0F80
0F80
1F80
1F80
1F80
1F80
1F00
1F00
3F00
3F00
3F00
3E00
3E00
7E00
7E00
7E00
7C00
7C00
FC00
FC00
ENDCHAR
STARTCHAR 00CD
ENCODING 205
SWIDTH 288 0
DWIDTH 16 0
BBX 20 51 5 0
BITMAP
0003F0
0007E0
000FC0
001F00
003E00
007C00
007800
00F000
000000
000000
000000
00F800
00F800
01F800
01F800
01F800
01F000
01F000
03F000
03F000
03F000
03E000
03E000
07E000
07E000
07E000
07C000
07C000
0FC000
0FC000
0FC000
0F8000
0F8000
1F8000
1F8000
1F8000
1F8000
1F0000
1F0000
3F0000
3F0000
3F0000
3E0000
3E0000
7E0000
7E0000
7E0000
7C0000
7C0000
FC0000
FC0000
ENDCHAR
STARTCHAR 00CE
ENCODING 206
SWIDTH 288 0
DWIDTH 16 0
BBX 19 51 5 0
BITMAP
007F00
00FF00
01FF80
03EF80
07C7C0
0F83C0
0F03C0
1E01E0
000000
000000
000000
00F800
00F800
01F800
01F800
01F800
01F000
01F000
03F000
03F000
03F000
03E000
03E000
07E000
07E000
07E000
07C000
07C000
0FC000
0FC000
0FC000
0F8000
0F8000
1F8000
1F8000
1F8000
1F8000
1F0000
1F0000
3F0000
3F0000
3F0000
3E0000
3E0000
7E0000
7E0000
7E0000
7C0000
7C0000
FC0000
FC0000
ENDCHAR
STARTCHAR 00CF
ENCODING 207
SWIDTH 288 0
DWIDTH 16 0
BBX 19 48 5 0
BITMAP
0F81E0
0F81E0
0F83E0
0F03E0
0F03E0
000000
000000
000000
00F800
00F800
01F800
01F800
01F800
01F000
01F000
03F000
03F000
03F000
03E000
03E000
07E000
07E000
07E000
07C000
07C000
0FC000
0FC000
0FC000
0F8000
0F8000
1F8000
1F8000
1F8000
1F8000
1F0000
1F0000
3F0000
3F0000
3F0000
3E0000
3E0000
7E0000
7E0000
7E0000
7C0000
7C0000
FC0000
FC0000
ENDCHAR
STARTCHAR 00D0
ENCODING 208
SWIDTH 738 0
DWIDTH 41 0
BBX 40 40 3 0
BITMAP
003FFFFC00
003FFFFF80
003FFFFFE0
003FFFFFF0
007E003FF8
007E0007FC
007E0001FC
007C0000FE
007C00007E
007C00007E
00FC00007E
00FC00003E
00F800003F
00F800003F
00F800003F
01F800003F
01F800003E
01F800003E
7FFFF8003E
7FFFF8007E
FFFFF8007E
FFFFF8007E
03F000007C
03E00000FC
03E00000FC
07E00001F8
07E00001F8
07E00003F0
07C00003F0
07C00007E0
0FC0000FC0
0FC0001FC0
0FC0003F80
0F80007F00
0F8001FE00
1F800FFC00
1FFFFFF800
1FFFFFE000
1FFFFF8000
1FFFF80000
ENDCHAR
STARTCHAR 00D1
ENCODING 209
SWIDTH 720 0
DWIDTH 40 0
BBX 38 50 5 0
BITMAP
00000F03C0
00001FC3C0
00003FE380
00007FFF80
000079FF00
000070FE00
0000703C00
0000000000
0000000000
0000000000
00FC00007C
00FC00007C
01FC00007C
01FE000078
01FE0000F8
01FF0000F8
01FF0000F8
03FF8000F8
03FF8000F0
03EF8001F0
03EFC001F0
03E7C001F0
07C7E001F0
07C7E001E0
07C3F003E0
07C3F003E0
07C1F803E0
0781F803E0
0F80F803C0
0F80FC07C0
0F80FC07C0
0F807E07C0
0F007E07C0
1F003F0780
1F003F0F80
1F001F0F80
1F001F8F80
1E001F8F80
3E000FCF00
3E000FDF00
3E0007FF00
3E0007FF00
3C0003FF00
7C0003FF00
7C0003FE00
7C0001FE00
7C0001FE00
780000FE00
F80000FE00
F800007C00
ENDCHAR
STARTCHAR 00D2
ENCODING 210
SWIDTH 756 0
DWIDTH 42 0
BBX 38 51 6 0
BITMAP
00001F0000
00001F8000
00000F8000
000007C000
000003C000
000003E000
000001E000
000000F000
0000000000
0000000000
00001FF000
0000FFFE00
0003FFFF00
000FFFFFC0
003FE03FE0
007F800FE0
00FE0007F0
01FC0003F8
03F80001F8
03F00001F8
07E00000FC
0FC00000FC
0FC00000FC
1F800000FC
1F000000FC
3F000000FC
3F000000FC
7E000000FC
7E000000FC
7E000000FC
7C000000F8
FC000000F8
FC000001F8
FC000001F8
FC000001F0
FC000003F0
FC000003F0
FC000007E0
FC000007E0
FC00000FC0
FC00001F80
7C00001F80
7E00003F00
7F00007E00
3F0000FC00
3F8003F800
1FE00FF000
0FFFFFE000
07FFFF8000
03FFFF0000
00FFF80000
ENDCHAR
STARTCHAR 00D3
ENCODING 211
SWIDTH 756 0
DWIDTH 42 0
BBX 38 51 6 0
BITMAP
0000003F00
0000007E00
000000FC00
000001F000
000003E000
000007C000
0000078000
00000F0000
0000000000
0000000000
00001FF000
0000FFFE00
0003FFFF00
000FFFFFC0
003FE03FE0
007F800FE0
00FE0007F0
01FC0003F8
03F80001F8
03F00001F8
07E00000FC
0FC00000FC
0FC00000FC
1F800000FC
1F000000FC
3F000000FC
3F000000FC
7E000000FC
7E000000FC
7E000000FC
7C000000F8
FC000000F8
FC000001F8
FC000001F8
FC000001F0
FC000003F0
FC000003F0
FC000007E0
FC000007E0
FC00000FC0
FC00001F80
7C00001F80
7E00003F00
7F00007E00
3F0000FC00
3F8003F800
1FE00FF000
0FFFFFE000
07FFFF8000
03FFFF0000
00FFF80000
ENDCHAR
STARTCHAR 00D4
ENCODING 212
SWIDTH 756 0
DWIDTH 42 0
BBX 38 51 6 0
BITMAP
000003F800
000007F800
00000FFC00
00001F3C00
00003E3E00
00007C1E00
0000F00F00
0001E00F00
0000000000
0000000000
00001FF000
0000FFFE00
0003FFFF00
000FFFFFC0
003FE03FE0
007F800FE0
00FE0007F0
01FC0003F8
03F80001F8
03F00001F8
07E00000FC
0FC00000FC
0FC00000FC
1F800000FC
1F000000FC
3F000000FC
3F000000FC
7E000000FC
7E000000FC
7E000000FC
7C000000F8
FC000000F8
FC000001F8
FC000001F8
FC000001F0
FC000003F0
FC000003F0
FC000007E0
FC000007E0
FC00000FC0
FC00001F80
7C00001F80
7E00003F00
7F00007E00
3F0000FC00
3F8003F800
1FE00FF000
0FFFFFE000
07FFFF8000
03FFFF0000
00FFF80000
ENDCHAR
STARTCHAR 00D5
ENCODING 213
SWIDTH 756 0
DWIDTH 42 0
BBX 38 50 6 -1
BITMAP
00000F83C0
00003FE380
00003FFF80
00007FFF00
000071FF00
0000F03C00
0000000000
0000000000
0000000000
00001FF000
0000FFFE00
0003FFFF00
000FFFFFC0
003FE03FE0
007F800FE0
00FE0007F0
01FC0003F8
03F80001F8
03F00001F8
07E00000FC
0FC00000FC
0FC00000FC
1F800000FC
1F000000FC
3F000000FC
3F000000FC
7E000000FC
7E000000FC
7E000000FC
7C000000F8
FC000000F8
FC000001F8
FC000001F8
FC000001F0
FC000003F0
FC000003F0
FC000007E0
FC000007E0
FC00000FC0
FC00001F80
7C00001F80
7E00003F00
7F00007E00
3F0000FC00
3F8003F800
1FE00FF000
0FFFFFE000
07FFFF8000
03FFFF0000
00FFF80000
ENDCHAR
STARTCHAR 00D6
ENCODING 214
SWIDTH 756 0
DWIDTH 42 0
BBX 38 49 6 -1
BITMAP
00003C0F80
00003C0F80
00007C0F80
00007C0F80
00007C0F00
0000000000
0000000000
0000000000
00001FF000
0000FFFE00
0003FFFF00
000FFFFFC0
003FE03FE0
007F800FE0
00FE0007F0
01FC0003F8
03F80001F8
03F00001F8
07E00000FC
0FC00000FC
0FC00000FC
1F800000FC
1F000000FC
3F000000FC
3F000000FC
7E000000FC
7E000000FC
7E000000FC
7C000000F8
FC000000F8
FC000001F8
FC000001F8
FC000001F0
FC000003F0
FC000003F0
FC000007E0
FC000007E0
FC00000FC0
FC00001F80
7C00001F80
7E00003F00
7F00007E00
3F0000FC00
3F8003F800
1FE00FF000
0FFFFFE000
07FFFF8000
03FFFF0000
00FFF80000
ENDCHAR
STARTCHAR 00D7
ENCODING 215
SWIDTH 612 0
DWIDTH 34 0
BBX 33 30 4 1
BITMAP
0100000200
0300000700
0780000F00
07C0001F80
07E0003F00
03E0007E00
01F001FC00
00F803F000
007C07E000
007E0FC000
003E1F8000
001F7F0000
000FFC0000
0007F80000
0007F00000
0007E00000
001FF00000
003FF80000
007E7C0000
00FC7C0000
01F83E0000
03F01F0000
0FE00F8000
1FC007C000
3F0007E000
7E0003E000
FC0001F000
F80000F000
7000006000
0000004000
ENDCHAR
STARTCHAR 00D8
ENCODING 216
SWIDTH 756 0
DWIDTH 42 0
BBX 44 42 3 -1
BITMAP
000003FE03F0
00001FFFC7E0
00007FFFF7C0
0001FFFFFF80
0003FC07FF00
000FF001FE00
001FC000FE00
003F8000FF00
007F0001FF00
007E0003FF00
00FC0007FF80
01F8000FDF80
01F8001F9F80
03F0003F1F80
03E0007E1F80
07E000FC1F80
07E001F81F80
0FC003F01F80
0FC007E01F80
0F800FC01F80
0F801F801F00
1F803F001F00
1F807E003F00
1F80FC003F00
1F81F8003E00
1F83F0007E00
1F83E0007C00
1F87C000FC00
1F8F8000FC00
1F9F8001F800
1FBF0003F000
1FFE0003F000
0FFC0007E000
0FF8000FC000
0FF0001F8000
07F0007F0000
0FFC01FE0000
1FFFFFFC0000
3FFFFFF00000
7E7FFFC00000
7C1FFF000000
F80000000000
ENDCHAR
STARTCHAR 00D9
ENCODING 217
SWIDTH 666 0
DWIDTH 37 0
BBX 33 52 7 -1
BITMAP
0001F80000
0000F80000
0000FC0000
00007C0000
00003E0000
00003E0000
00001E0000
00000F0000
0000000000
0000000000
0000000000
0000000000
07E0000F80
07E0000F80
07E0000F80
0FC0000F80
0FC0000F80
0FC0001F00
0FC0001F00
0FC0001F00
0F80001F00
1F80001F00
1F80003E00
1F80003E00
1F80003E00
1F00003E00
3F00003E00
3F00007C00
3F00007C00
3F00007C00
3E00007C00
7E00007C00
7E0000F800
7E0000F800
7E0000F800
7C0000F800
7C0000F800
FC0001F000
FC0001F000
FC0001F000
FC0001F000
FC0003E000
FC0003E000
FC0003E000
FC0007C000
7E000FC000
7E001F8000
7F803F0000
3FFFFE0000
1FFFFC0000
0FFFF00000
03FFC00000
ENDCHAR
STARTCHAR 00DA
ENCODING 218
SWIDTH 666 0
DWIDTH 37 0
BBX 33 52 7 -1
BITMAP
000001F800
000003F000
000007E000
00000FC000
00000F8000
00001F0000
00003C0000
0000780000
0000F00000
0000000000
0000000000
0000000000
07E0000F80
07E0000F80
07E0000F80
0FC0000F80
0FC0000F80
0FC0001F00
0FC0001F00
0FC0001F00
0F80001F00
1F80001F00
1F80003E00
1F80003E00
1F80003E00
1F00003E00
3F00003E00
3F00007C00
3F00007C00
3F00007C00
3E00007C00
7E00007C00
7E0000F800
7E0000F800
7E0000F800
7C0000F800
7C0000F800
FC0001F000
FC0001F000
FC0001F000
FC0001F000
FC0003E000
FC0003E000
FC0003E000
FC0007C000
7E000FC000
7E001F8000
7F803F0000
3FFFFE0000
1FFFFC0000
0FFFF00000
03FFC00000
ENDCHAR
STARTCHAR 00DB
ENCODING 219
SWIDTH 666 0
DWIDTH 37 0
BBX 33 52 7 -1
BITMAP
00001F8000
00003FC000
00007FC000
0000FBE000
0001F3E000
0003E1F000
0007C0F000
000F00F000
0000000000
0000000000
0000000000
0000000000
07E0000F80
07E0000F80
07E0000F80
0FC0000F80
0FC0000F80
0FC0001F00
0FC0001F00
0FC0001F00
0F80001F00
1F80001F00
1F80003E00
1F80003E00
1F80003E00
1F00003E00
3F00003E00
3F00007C00
3F00007C00
3F00007C00
3E00007C00
7E00007C00
7E0000F800
7E0000F800
7E0000F800
7C0000F800
7C0000F800
FC0001F000
FC0001F000
FC0001F000
FC0001F000
FC0003E000
FC0003E000
FC0003E000
FC0007C000
7E000FC000
7E001F8000
7F803F0000
3FFFFE0000
1FFFFC0000
0FFFF00000
03FFC00000
ENDCHAR
STARTCHAR 00DC
ENCODING 220
SWIDTH 666 0
DWIDTH 37 0
BBX 33 49 7 -1
BITMAP
0007C0F000
0007C0F000
0007C1F000
000781F000
000781F000
0000000000
0000000000
0000000000
0000000000
07E0000F80
07E0000F80
07E0000F80
0FC0000F80
0FC0000F80
0FC0001F00
0FC0001F00
0FC0001F00
0F80001F00
1F80001F00
1F80003E00
1F80003E00
1F80003E00
1F00003E00
3F00003E00
3F00007C00
3F00007C00
3F00007C00
3E00007C00
7E00007C00
7E0000F800
7E0000F800
7E0000F800
7C0000F800
7C0000F800
FC0001F000
FC0001F000
FC0001F000
FC0001F000
FC0003E000
FC0003E000
FC0003E000
FC0007C000
7E000FC000
7E001F8000
7F803F0000
3FFFFE0000
1FFFFC0000
0FFFF00000
03FFC00000
ENDCHAR
STARTCHAR 00DD
ENCODING 221
SWIDTH 594 0
DWIDTH 33 0
BBX 32 51 8 0
BITMAP
00001FC0
00001F00
00003E00
00007C00
0000F800
0001F000
0003E000
0007C000
00000000
00000000
00000000
FC00003F
7E00007E
7E0000FC
3F0000F8
3F0001F0
1F8003F0
1F8007E0
1F800FC0
0FC00F80
0FC01F80
07E03F00
07E07E00
07E07C00
03F0FC00
03F1F800
01FBF000
01FBE000
01FFC000
00FFC000
00FF8000
007F0000
007E0000
007E0000
007E0000
007C0000
007C0000
00FC0000
00FC0000
00FC0000
00F80000
00F80000
01F80000
01F80000
01F80000
01F80000
01F00000
03F00000
03F00000
03F00000
03F00000
ENDCHAR
STARTCHAR 00DE
ENCODING 222
SWIDTH 558 0
DWIDTH 31 0
BBX 28 40 5 0
BITMAP
01F80000
01F80000
01F00000
01F00000
01F00000
03F00000
03F00000
03F00000
03FFFC00
03FFFF00
07FFFF80
07FFFFC0
07C01FE0
07C007E0
07C003E0
0FC003F0
0FC003F0
0FC003F0
0F8003E0
0F8003E0
1F8007E0
1F8007C0
1F800FC0
1F000F80
1F001F80
3F003F00
3F00FE00
3F03FC00
3FFFF800
3FFFF000
7FFFC000
7FFC0000
7E000000
7C000000
7C000000
FC000000
FC000000
FC000000
F8000000
F8000000
ENDCHAR
STARTCHAR 00DF
ENCODING 223
SWIDTH 594 0
DWIDTH 33 0
BBX 29 54 4 -10
BITMAP
0001FF80
0007FFC0
000FFFE0
001FFFE0
001F03F0
003E03F0
007E03F0
007C03F0
007C03E0
00FC03E0
00F807C0
00F80FC0
00F81F80
00F83E00
01F87C00
01F0F800
01F1F000
01F1E000
01F3E000
03F3E000
03E3E000
03E3F000
03E3F800
03E1FC00
07E1FE00
07C0FF00
07C03F80
07C01FC0
07C00FE0
0FC007F0
0F8003F0
0F8001F8
0F8001F8
0F8000F8
1F8000F8
1F0000F8
1F0000F8
1F0001F0
1F0403F0
3F0FFFE0
3E0FFFC0
3E0FFF80
3E0FFE00
3E000000
7E000000
7E000000
7C000000
7C000000
7C000000
FC000000
FC000000
F8000000
F8000000
F8000000
ENDCHAR
STARTCHAR 00E0
ENCODING 224
SWIDTH 612 0
DWIDTH 34 0
BBX 29 43 5 -1
BITMAP
0001F800
0000FC00
00007C00
00003E00
00003E00
00001F00
00000F00
00000F00
00000000
00000000
00000000
00000000
00000000
00000000
0003FFF8
000FFFF8
003FFFF8
007FFFF0
00FE01F0
01F801F0
03F001F0
07E003F0
07C003E0
0FC003E0
0F8003E0
1F0007E0
3F0007E0
3E000FC0
3E001FC0
7E003FC0
7C007FC0
7C007FC0
FC00FF80
FC01EF80
FC03CF80
FC078F80
FC0F9F80
FC3F1F00
FFFE1F00
FFFC1F00
7FF83F00
3FE03F00
1F803E00
ENDCHAR
STARTCHAR 00E1
ENCODING 225
SWIDTH 612 0
DWIDTH 34 0
BBX 30 43 5 -1
BITMAP
000000FC
000001F8
000003F0
000007E0
000007C0
00000F80
00001E00
00003C00
00007800
00000000
00000000
00000000
00000000
00000000
0003FFF8
000FFFF8
003FFFF8
007FFFF0
00FE01F0
01F801F0
03F001F0
07E003F0
07C003E0
0FC003E0
0F8003E0
1F0007E0
3F0007E0
3E000FC0
3E001FC0
7E003FC0
7C007FC0
7C007FC0
FC00FF80
FC01EF80
FC03CF80
FC078F80
FC0F9F80
FC3F1F00
FFFE1F00
FFFC1F00
7FF83F00
3FE03F00
1F803E00
ENDCHAR
STARTCHAR 00E2
ENCODING 226
SWIDTH 612 0
DWIDTH 34 0
BBX 29 43 5 -1
BITMAP
00001FC0
00003FC0
00007FC0
0000FBE0
0001F1E0
0003E1F0
0007C0F0
000F8078
00000000
00000000
00000000
00000000
00000000
00000000
0003FFF8
000FFFF8
003FFFF8
007FFFF0
00FE01F0
01F801F0
03F001F0
07E003F0
07C003E0
0FC003E0
0F8003E0
1F0007E0
3F0007E0
3E000FC0
3E001FC0
7E003FC0
7C007FC0
7C007FC0
FC00FF80
FC01EF80
FC03CF80
FC078F80
FC0F9F80
FC3F1F00
FFFE1F00
FFFC1F00
7FF83F00
3FE03F00
1F803E00
ENDCHAR
STARTCHAR 00E3
ENCODING 227
SWIDTH 612 0
DWIDTH 34 0
BBX 30 41 5 -1
BITMAP
0000781C
0001FE3C
0003FFF8
0003FFF8
00078FF0
000703C0
00000000
00000000
00000000
00000000
00000000
00000000
0003FFF8
000FFFF8
003FFFF8
007FFFF0
00FE01F0
01F801F0
03F001F0
07E003F0
07C003E0
0FC003E0
0F8003E0
1F0007E0
3F0007E0
3E000FC0
3E001FC0
7E003FC0
7C007FC0
7C007FC0
FC00FF80
FC01EF80
FC03CF80
FC078F80
FC0F9F80
FC3F1F00
FFFE1F00
FFFC1F00
7FF83F00
3FE03F00
1F803E00
ENDCHAR
STARTCHAR 00E4
ENCODING 228
SWIDTH 612 0
DWIDTH 34 0
BBX 29 40 5 -1
BITMAP
0003E078
0003E0F8
0003C0F8
0003C0F8
0007C0F8
00000000
00000000
00000000
00000000
00000000
00000000
0003FFF8
000FFFF8
003FFFF8
007FFFF0
00FE01F0
01F801F0
03F001F0
07E003F0
07C003E0
0FC003E0
0F8003E0
1F0007E0
3F0007E0
3E000FC0
3E001FC0
7E003FC0
7C007FC0
7C007FC0
FC00FF80
FC01EF80
FC03CF80
FC078F80
FC0F9F80
FC3F1F00
FFFE1F00
FFFC1F00
7FF83F00
3FE03F00
1F803E00
ENDCHAR
STARTCHAR 00E5
ENCODING 229
SWIDTH 612 0
DWIDTH 34 0
BBX 29 43 5 0
BITMAP
00003E00
00007F00
0000C180
0000C180
0000C180
0000E380
00007F00
00003E00
00000000
00000000
00000000
00000000
00000000
00000000
0003FFF8
000FFFF8
001FFFF8
007FFFF0
00FE01F0
01F801F0
03F001F0
07E003F0
07C003F0
0FC003E0
0F8003E0
1F0007E0
1F0007E0
3E000FE0
3E001FC0
7E003FC0
7C007FC0
7C007FC0
FC00FFC0
FC01EF80
FC03CF80
FC079F80
FC0F1F80
FC3F1F80
FFFE1F00
FFFC3F00
7FF03F00
3FE03F00
3F803F00
ENDCHAR
STARTCHAR 00E6
ENCODING 230
SWIDTH 882 0
DWIDTH 49 0
BBX 44 29 5 0
BITMAP
0003FFF8FFC0
000FFFFBFFE0
003FFFFFFFE0
007FFFFFFFF0
00FE01FF03F0
01F801FE03F0
03F001FC03F0
03E003F803F0
07C003F003E0
0FC003F007E0
0F8003E00FC0
1F0007E01FC0
1F000FE03F80
3E000FC1FF00
3E001FFFFC00
7E003FFFF800
7C007FFFE000
7C00FFFE0000
FC00EFC00000
FC01EFC00000
FC03CFC00000
FC07CFC00010
FC0F8FC00070
FC3F07E001E0
FFFE07F00FE0
7FFC07FFFFE0
7FF803FFFFC0
3FF001FFFF00
1FC0007FF800
ENDCHAR
STARTCHAR 00E7
ENCODING 231
SWIDTH 504 0
DWIDTH 28 0
BBX 25 40 5 -10
BITMAP
0007FF80
001FFF80
007FFF80
00FFFF00
01FC0100
03F00000
07E00000
0FC00000
1F800000
1F000000
3F000000
3E000000
7E000000
7E000000
7C000000
FC000000
FC000000
FC000000
FC000000
FC000000
FC000000
FC000000
FC000000
FC000800
7E003800
7F83F800
7FFFF800
3FFFF000
1FFFE000
07FF0000
00E00000
00C00000
01C00000
01F00000
00780000
00780000
00780000
00F80000
0FF00000
0FC00000
ENDCHAR
STARTCHAR 00E8
ENCODING 232
SWIDTH 522 0
DWIDTH 29 0
BBX 24 43 5 -1
BITMAP
000F80
0007C0
0007C0
0003E0
0001E0
0001F0
0000F0
000078
000000
000000
000000
000000
000000
000000
000FFC
003FFE
007FFE
01FFFF
03F03F
07E03F
07C03F
0F803F
1F003E
1F007E
3E00FC
3E01FC
7C07F8
7C7FE0
7FFFC0
FFFF00
FFF800
FC0000
FC0000
FC0000
FC0000
FC0001
FC0006
7E001E
7F00FE
7FFFFE
3FFFFC
1FFFF0
07FF80
ENDCHAR
STARTCHAR 00E9
ENCODING 233
SWIDTH 522 0
DWIDTH 29 0
BBX 26 43 5 -1
BITMAP
00001FC0
00001F80
00003F00
00007E00
0000F800
0000F000
0001E000
0003C000
00078000
00000000
00000000
00000000
00000000
00000000
000FFC00
003FFE00
007FFE00
01FFFF00
03F03F00
07E03F00
07C03F00
0F803F00
1F003E00
1F007E00
3E00FC00
3E01FC00
7C07F800
7C7FE000
7FFFC000
FFFF0000
FFF80000
FC000000
FC000000
FC000000
FC000000
FC000100
FC000600
7E001E00
7F00FE00
7FFFFE00
3FFFFC00
1FFFF000
07FF8000
ENDCHAR
STARTCHAR 00EA
ENCODING 234
SWIDTH 522 0
DWIDTH 29 0
BBX 25 43 5 -1
BITMAP
0001FC00
0003FC00
0007FE00
000FBE00
001F1F00
003E1F00
003C0F80
00780780
00000000
00000000
00000000
00000000
00000000
00000000
000FFC00
003FFE00
007FFE00
01FFFF00
03F03F00
07E03F00
07C03F00
0F803F00
1F003E00
1F007E00
3E00FC00
3E01FC00
7C07F800
7C7FE000
7FFFC000
FFFF0000
FFF80000
FC000000
FC000000
FC000000
FC000000
FC000100
FC000600
7E001E00
7F00FE00
7FFFFE00
3FFFFC00
1FFFF000
07FF8000
ENDCHAR
STARTCHAR 00EB
ENCODING 235
SWIDTH 522 0
DWIDTH 29 0
BBX 26 40 5 -1
BITMAP
001E07C0
001E07C0
001E07C0
003E07C0
003E07C0
00000000
00000000
00000000
00000000
00000000
00000000
000FFC00
003FFE00
007FFE00
01FFFF00
03F03F00
07E03F00
07C03F00
0F803F00
1F003E00
1F007E00
3E00FC00
3E01FC00
7C07F800
7C3FE000
7FFFC000
FFFF0000
FFF80000
FE000000
FC000000
FC000000
FC000000
FC000100
FC000600
7E001E00
7F00FE00
7FFFFE00
3FFFFC00
1FFFF000
07FF8000
ENDCHAR
STARTCHAR 00EC
ENCODING 236
SWIDTH 288 0
DWIDTH 16 0
BBX 13 43 5 0
BITMAP
0FC0
07E0
03E0
03E0
01F0
00F0
0078
0078
0000
0000
0000
0000
0000
0000
03E0
03E0
07E0
07E0
07C0
07C0
07C0
0FC0
0FC0
0F80
0F80
0F80
1F80
1F80
1F00
1F00
1F00
3F00
3F00
3E00
3E00
3E00
3E00
7E00
7C00
7C00
7C00
7C00
FC00
ENDCHAR
STARTCHAR 00ED
ENCODING 237
SWIDTH 288 0
DWIDTH 16 0
BBX 18 43 5 0
BITMAP
000FC0
001F80
003F00
003E00
007C00
00F800
01E000
03C000
000000
000000
000000
000000
000000
000000
03E000
03E000
07E000
07E000
07C000
07C000
07C000
0FC000
0FC000
0F8000
0F8000
0F8000
1F8000
1F8000
1F0000
1F0000
1F0000
3F0000
3F0000
3E0000
3E0000
3E0000
3E0000
7E0000
7C0000
7C0000
7C0000
7C0000
FC0000
ENDCHAR
STARTCHAR 00EE
ENCODING 238
SWIDTH 288 0
DWIDTH 16 0
BBX 17 43 5 0
BITMAP
00FC00
01FE00
03FE00
07DF00
0F9F00
1F0F80
3E0780
780780
000000
000000
000000
000000
000000
000000
03E000
03E000
07E000
07E000
07C000
07C000
07C000
0FC000
0FC000
0F8000
0F8000
0F8000
1F8000
1F8000
1F0000
1F0000
1F0000
3F0000
3F0000
3E0000
3E0000
3E0000
3E0000
7E0000
7C0000
7C0000
7C0000
7C0000
FC0000
ENDCHAR
STARTCHAR 00EF
ENCODING 239
SWIDTH 288 0
DWIDTH 16 0
BBX 18 40 5 0
BITMAP
1E07C0
1E07C0
3E07C0
3E0780
3E0780
000000
000000
000000
000000
000000
000000
03E000
03E000
07E000
07E000
07C000
07C000
07C000
0FC000
0FC000
0F8000
0F8000
0F8000
1F8000
1F8000
1F0000
1F0000
1F0000
3F0000
3F0000
3E0000
3E0000
3E0000
3E0000
7E0000
7C0000
7C0000
7C0000
7C0000
FC0000
ENDCHAR
STARTCHAR 00F0
ENCODING 240
SWIDTH 558 0
DWIDTH 31 0
BBX 27 43 5 0
BITMAP
03F80200
03FF0F00
03FFDF00
03FFFF80
001FFE00
0007FC00
0007FC00
000FFC00
001FFE00
007F3F00
007E3F00
003C1F80
00101F80
00000F80
0007EFC0
003FFFC0
007FFFC0
01FFFFC0
03F83FC0
07F01FE0
07C00FE0
0FC007E0
1F8007E0
1F0007E0
3F0007C0
3E0007C0
7E0007C0
7C0007C0
7C0007C0
FC000FC0
FC000F80
FC000F80
FC001F00
FC001F00
FC003F00
FC003E00
FC007C00
7E00FC00
7F03F800
7FFFF000
3FFFE000
1FFF8000
07FE0000
ENDCHAR
STARTCHAR 00F1
ENCODING 241
SWIDTH 612 0
DWIDTH 34 0
BBX 29 41 5 0
BITMAP
0001E070
0007F8F0
000FFFF0
000FFFE0
001E3FC0
001C0F80
00000000
00000000
00000000
00000000
00000000
00000000
03E00FE0
03E03FF0
03E0FFF0
07E1FFF0
07C3FFF8
07C7E1F8
07C781F8
07CF01F0
0FDE01F0
0FBE01F0
0FBC03F0
0FF803F0
0FF003E0
1FE003E0
1FE003E0
1FC007E0
1F8007E0
1F8007C0
3F0007C0
3E0007C0
3E000FC0
3E000FC0
3E000F80
7E000F80
7E000F80
7C001F80
7C001F80
7C001F00
FC001F00
ENDCHAR
STARTCHAR 00F2
ENCODING 242
SWIDTH 558 0
DWIDTH 31 0
BBX 27 43 5 -1
BITMAP
000FC000
0007C000
0007E000
0003E000
0001F000
0000F000
0000F800
00007800
00000000
00000000
00000000
00000000
00000000
00000000
000FFC00
003FFF00
00FFFF80
01FFFFC0
03F01FC0
07E00FC0
0FC007E0
0F8007E0
1F8007E0
1F0007E0
3E0007E0
3E0007E0
7E0007E0
7C0007E0
7C0007C0
FC0007C0
FC000FC0
FC000F80
FC000F80
FC001F00
FC003F00
FC003E00
FC007E00
7E00FC00
7F01F800
7FFFF000
3FFFE000
1FFF8000
07FE0000
ENDCHAR
STARTCHAR 00F3
ENCODING 243
SWIDTH 558 0
DWIDTH 31 0
BBX 27 43 5 -1
BITMAP
00000FC0
00001F80
00003F00
00007E00
00007C00
0000F800
0001F000
0003C000
00078000
00000000
00000000
00000000
00000000
00000000
000FFC00
003FFF00
00FFFF80
01FFFFC0
03F01FC0
07E00FC0
0FC007E0
0F8007E0
1F8007E0
1F0007E0
3E0007E0
3E0007E0
7E0007E0
7C0007E0
7C0007C0
FC0007C0
FC000FC0
FC000F80
FC000F80
FC001F00
FC003F00
FC003E00
FC007E00
7E00FC00
7F01F800
7FFFF000
3FFFE000
1FFF8000
07FE0000
ENDCHAR
STARTCHAR 00F4
ENCODING 244
SWIDTH 558 0
DWIDTH 31 0
BBX 27 43 5 -1
BITMAP
0000FE00
0001FE00
0003FF00
0007DF00
000F8F80
001F0780
003E0780
007C03C0
00000000
00000000
00000000
00000000
00000000
00000000
000FFC00
003FFF00
00FFFF80
01FFFFC0
03F01FC0
07E00FC0
0FC007E0
0F8007E0
1F8007E0
1F0007E0
3E0007E0
3E0007E0
7E0007E0
7C0007E0
7C0007C0
FC0007C0
FC000FC0
FC000F80
FC000F80
FC001F00
FC003F00
FC003E00
FC007E00
7E00FC00
7F01F800
7FFFF000
3FFFE000
1FFF8000
07FE0000
ENDCHAR
STARTCHAR 00F5
ENCODING 245
SWIDTH 558 0
DWIDTH 31 0
BBX 27 41 5 -1
BITMAP
0007C0E0
000FF1E0
001FFFC0
003FFFC0
003C7F80
00381E00
00000000
00000000
00000000
00000000
00000000
00000000
000FFC00
003FFF00
00FFFF80
01FFFFC0
03F01FC0
07E00FC0
0FC007E0
0F8007E0
1F8007E0
1F0007E0
3E0007E0
3E0007E0
7E0007E0
7C0007E0
7C0007C0
FC0007C0
FC000FC0
FC000F80
FC000F80
FC001F00
FC003F00
FC003E00
FC007E00
7E00FC00
7F01F800
7FFFF000
3FFFE000
1FFF8000
07FE0000
ENDCHAR
STARTCHAR 00F6
ENCODING 246
SWIDTH 558 0
DWIDTH 31 0
BBX 27 40 5 -1
BITMAP
001F03E0
001F03C0
001F03C0
001E07C0
001E07C0
00000000
00000000
00000000
00000000
00000000
00000000
000FFC00
003FFF00
00FFFF80
01FFFFC0
03F01FC0
07E00FC0
0FC007E0
0F8007E0
1F8007E0
1F0007E0
3E0007E0
3E0007E0
7E0007E0
7C0007E0
7C0007C0
FC0007C0
FC000FC0
FC000F80
FC000F80
FC001F00
FC003F00
FC003E00
FC007E00
7E00FC00
7F01F800
7FFFF000
3FFFE000
1FFF8000
07FE0000
ENDCHAR
STARTCHAR 00F7
ENCODING 247
SWIDTH 612 0
DWIDTH 34 0
BBX 29 28 6 2
BITMAP
0003F000
0003F000
0003F000
0007E000
0007E000
0007E000
00000000
00000000
00000000
00000000
00000000
00000000
FFFFFFF8
FFFFFFF8
FFFFFFF8
FFFFFFF8
00000000
00000000
00000000
00000000
00000000
00000000
003F0000
003E0000
007E0000
007E0000
007E0000
007E0000
ENDCHAR
STARTCHAR 00F8
ENCODING 248
SWIDTH 558 0
DWIDTH 31 0
BBX 31 31 3 -1
BITMAP
0000003E
0003FF7E
000FFFFC
003FFFF8
007FFFF0
00FC07F0
01F807F0
03F00FF8
03E01FF8
07E03FF8
07C07FF8
0F807DF8
0F80F9F8
1F81F1F8
1F03E1F8
1F07C1F0
3F0F81F0
3F1F03F0
3F3F03E0
3F7E03E0
3FFC07C0
3FF80FC0
3FF00F80
3FE01F80
1FC03F00
1FC07E00
1FFFFC00
3FFFF800
7FFFE000
7DFF8000
F8000000
ENDCHAR
STARTCHAR 00F9
ENCODING 249
SWIDTH 612 0
DWIDTH 34 0
BBX 28 43 6 -1
BITMAP
000FC000
0007C000
0007E000
0003E000
0001F000
0001F000
0000F800
00007800
00000000
00000000
00000000
00000000
00000000
00000000
0FC001F0
0FC001F0
0F8003F0
0F8003F0
0F8003E0
1F8003E0
1F8003E0
1F0007E0
1F0007E0
1F0007C0
3F0007C0
3F000FC0
3E001FC0
3E001FC0
3E003F80
7E007F80
7E00FF80
7C00EF80
7C01FF80
7C03DF00
FC079F00
FC0F9F00
FC1F1F00
FC3E3F00
FFFC3E00
FFF83E00
FFF03E00
7FE07E00
3F807E00
ENDCHAR
STARTCHAR 00FA
ENCODING 250
SWIDTH 612 0
DWIDTH 34 0
BBX 28 43 6 -1
BITMAP
000007E0
00000FC0
00001F80
00003F00
00007E00
00007800
0000F000
0001E000
0003C000
00000000
00000000
00000000
00000000
00000000
0FC001F0
0FC001F0
0F8003F0
0F8003F0
0F8003E0
1F8003E0
1F8003E0
1F0007E0
1F0007E0
1F0007C0
3F0007C0
3F000FC0
3E001FC0
3E001FC0
3E003F80
7E007F80
7E00FF80
7C00EF80
7C01FF80
7C03DF00
FC079F00
FC0F9F00
FC1F1F00
FC3E3F00
FFFC3E00
FFF83E00
FFF03E00
7FE07E00
3F807E00
ENDCHAR
STARTCHAR 00FB
ENCODING 251
SWIDTH 612 0
DWIDTH 34 0
BBX 28 43 6 -1
BITMAP
0000FC00
0001FE00
0003FE00
0007DF00
000F8F00
001F0F80
003E0780
007C07C0
00000000
00000000
00000000
00000000
00000000
00000000
0FC001F0
0FC001F0
0F8003F0
0F8003F0
0F8003E0
1F8003E0
1F8003E0
1F0007E0
1F0007E0
1F0007C0
3F0007C0
3F000FC0
3E001FC0
3E001FC0
3E003F80
7E007F80
7E00FF80
7C00EF80
7C01FF80
7C03DF00
FC079F00
FC0F9F00
FC1F1F00
FC3E3F00
FFFC3E00
FFF83E00
FFF03E00
7FE07E00
3F807E00
ENDCHAR
STARTCHAR 00FC
ENCODING 252
SWIDTH 612 0
DWIDTH 34 0
BBX 28 40 6 -1
BITMAP
003E0780
003E0780
003E0F80
003C0F80
003C0F80
00000000
00000000
00000000
00000000
00000000
00000000
0FC001F0
0FC001F0
0F8003F0
0F8003F0
0F8003E0
1F8003E0
1F8003E0
1F0007E0
1F0007E0
1F0007C0
3F0007C0
3F000FC0
3E001FC0
3E001FC0
3E003F80
7E007F80
7E00FF80
7C00EF80
7C01FF80
7C03DF00
FC079F00
FC0F9F00
FC1F1F00
FC3E3F00
FFFC3E00
FFF83E00
FFF03E00
7FE07E00
3F807E00
ENDCHAR
STARTCHAR 00FD
ENCODING 253
SWIDTH 540 0
DWIDTH 30 0
BBX 29 54 6 -11
BITMAP
00000FC0
00000F80
00001F00
00003E00
00007C00
00007800
0000F000
0001E000
0003C000
00000000
00000000
00000000
00000000
00000000
7E0000F8
7E0001F0
3E0001F0
3E0003E0
3E0007C0
3E0007C0
3F000F80
3F001F80
1F001F00
1F003E00
1F003E00
1F007C00
1F80F800
1F80F800
0F81F000
0F81F000
0F83E000
0F87C000
0FC7C000
0FCF8000
07DF0000
07DF0000
07FE0000
07FE0000
07FC0000
07F80000
03F80000
03F00000
03F00000
03E00000
07C00000
07C00000
0F800000
1F000000
1F000000
3E000000
3E000000
7C000000
F8000000
F8000000
ENDCHAR
STARTCHAR 00FE
ENCODING 254
SWIDTH 612 0
DWIDTH 34 0
BBX 31 49 4 -11
BITMAP
007C0000
007C0000
00FC0000
00FC0000
00F80000
00F80000
00F80000
01F80000
01F80000
01F007F0
01F01FF8
01F03FFC
03F07FFC
03F0FFFC
03E1F07E
03E3E07E
03E7C07E
07EF807C
07EF007C
07DE007C
07FC00FC
07F800FC
07F000F8
0FF001F8
0FE001F8
0FC001F0
0F8003F0
0F8003E0
1F8007C0
1F000FC0
1F001F80
1F003F00
1F007E00
3F00FE00
3FFFF800
3FFFF000
3FFFE000
3FFF0000
7E000000
7C000000
7C000000
7C000000
7C000000
FC000000
FC000000
F8000000
F8000000
F8000000
F8000000
ENDCHAR
STARTCHAR 00FF
ENCODING 255
SWIDTH 540 0
DWIDTH 30 0
BBX 29 50 6 -11
BITMAP
003C0F80
007C0F80
007C0F00
007C0F00
00781F00
00000000
00000000
00000000
00000000
00000000
7E0000F8
7E0001F0
3E0001F0
3E0003E0
3E0007C0
3E0007C0
3F000F80
3F001F80
1F001F00
1F003E00
1F003E00
1F007C00
1F80F800
1F80F800
0F81F000
0F81F000
0F83E000
0F87C000
0FC7C000
0FCF8000
07DF0000
07DF0000
07FE0000
07FE0000
07FC0000
07F80000
03F80000
03F00000
03F00000
03E00000
07C00000
07C00000
0F800000
1F000000
1F000000
3E000000
3E000000
7C000000
F8000000
F8000000
ENDCHAR
STARTCHAR 0131
ENCODING 305
SWIDTH 288 0
DWIDTH 16 0
BBX 11 29 5 0
BITMAP
03E0
03E0
07E0
07E0
07C0
07C0
07C0
0FC0
0FC0
0F80
0F80
0F80
1F80
1F80
1F00
1F00
1F00
3F00
3F00
3E00
3E00
3E00
3E00
7E00
7C00
7C00
7C00
7C00
FC00
ENDCHAR
STARTCHAR 0152
ENCODING 338
SWIDTH 990 0
DWIDTH 55 0
BBX 54 41 6 -1
BITMAP
00001FF0000000
0000FFFCFFFFFC
0003FFFFFFFFFC
000FFFFFFFFFF8
001FE03FFFFFF8
007F800FF80000
00FE0007F00000
01FC0003F00000
03F80003F00000
03F00003F00000
07E00003F00000
0FC00003E00000
0FC00003E00000
1F800007E00000
1F000007E00000
3F000007E00000
3F000007E00000
7E000007C00000
7E00000FFFFF00
7E00000FFFFE00
7C00000FFFFE00
FC00000FFFFE00
FC00000F800000
FC00001F800000
FC00001F800000
FC00001F800000
FC00001F800000
FC00001F000000
FC00003F000000
FC00003F000000
FC00003F000000
7C00007F000000
7E00007E000000
7F0000FE000000
3F0001FE000000
3F8003FE000000
1FE00FFE000000
0FFFFFFFFFFF00
07FFFFFFFFFF00
03FFFEFFFFFF00
00FFF0FFFFFE00
ENDCHAR
STARTCHAR 0153
ENCODING 339
SWIDTH 882 0
DWIDTH 49 0
BBX 44 29 5 0
BITMAP
000FFC00FFC0
003FFF03FFE0
00FFFF87FFE0
01FFFF8FFFF0
03F01FFF03F0
07E00FFE03F0
0FC00FFC03F0
0F8007F803F0
1F0007F003E0
1F0007F007E0
3E0007E00FC0
3E0007E01F80
7E0007C07F00
7C0007C7FE00
7C000FFFF800
FC000FFFE000
FC000FFF0000
FC000FC00000
FC001FC00000
FC001FC00000
FC003FC00000
FC007FC00030
FC007FC00060
7E00FFE001E0
7F03FFF00FE0
7FFFF7FFFFE0
3FFFC3FFFF80
1FFF81FFFE00
07FE007FF000
ENDCHAR
STARTCHAR 0160
ENCODING 352
SWIDTH 558 0
DWIDTH 31 0
BBX 31 51 4 0
BITMAP
0001F01E
0000F03C
0000F878
00007DF0
00007FE0
00003FC0
00003F80
00000000
00000000
00000000
0001FFC0
000FFFFC
001FFFFC
007FFFFC
007F00FC
00FC001C
01F80000
01F00000
03F00000
03F00000
03F00000
03F00000
03F00000
03F80000
01FC0000
01FE0000
00FF0000
00FF8000
007FC000
003FF000
000FF800
0007FC00
0003FE00
0001FE00
00007F00
00003F80
00001F80
00001F80
00000F80
00000FC0
00000FC0
00000F80
00000F80
00001F80
00001F00
C0003F00
F800FE00
FFFFFC00
FFFFF800
FFFFF000
3FFF8000
ENDCHAR
STARTCHAR 0161
ENCODING 353
SWIDTH 486 0
DWIDTH 27 0
BBX 27 44 4 -1
BITMAP
001E01E0
001E03C0
000F0F80
000F9F00
000FBE00
0007FC00
0007F800
0003F000
00000000
00000000
00000000
00000000
00000000
00000000
003FF800
00FFFE00
01FFFE00
03FFFE00
03F00E00
07E00000
07E00000
07E00000
07E00000
07F00000
03F00000
03F80000
01FC0000
00FE0000
007F0000
003F8000
001FC000
000FE000
0007E000
0003F000
0003F000
0003F000
0003F000
4003F000
F807E000
FFFFE000
FFFFC000
FFFF8000
1FFE0000
00400000
ENDCHAR
STARTCHAR 0178
ENCODING 376
SWIDTH 594 0
DWIDTH 33 0
BBX 32 48 8 0
BITMAP
003E0780
003E0F80
003C0F80
003C0F80
007C0F00
00000000
00000000
00000000
FC00003F
7E00007E
7E0000FC
3F0000F8
3F0001F0
1F8003F0
1F8007E0
1F800FC0
0FC00F80
0FC01F80
07E03F00
07E07E00
07E07C00
03F0FC00
03F1F800
01FBF000
01FBE000
01FFC000
00FFC000
00FF8000
007F0000
007E0000
007E0000
007E0000
007C0000
007C0000
00FC0000
00FC0000
00FC0000
00F80000
00F80000
01F80000
01F80000
01F80000
01F80000
01F00000
03F00000
03F00000
03F00000
03F00000
ENDCHAR
STARTCHAR 0192
ENCODING 402
SWIDTH 612 0
DWIDTH 34 0
BBX 25 49 12 -9
BITMAP
0000FF00
0007FF80
000FFF80
001FFF80
003F0380
007E0000
007C0000
00F80000
00F80000
01F80000
01F00000
01F00000
01F00000
03F00000
03E00000
03E00000
03E00000
03E00000
FFFF0000
FFFF0000
FFFF0000
FFFE0000
07C00000
0FC00000
0FC00000
0F800000
0F800000
0F800000
1F800000
1F800000
1F000000
1F000000
1F000000
3F000000
3F000000
3E000000
3E000000
3E000000
7E000000
7E000000
7C000000
7C000000
7C000000
FC000000
FC000000
F8000000
F8000000
F8000000
F8000000
ENDCHAR
STARTCHAR 02C6
ENCODING 710
SWIDTH 558 0
DWIDTH 31 0
BBX 16 8 15 35
BITMAP
01F8
03F8
07FC
0FBC
1F3E
3C1E
780F
F00F
ENDCHAR
STARTCHAR 02C7
ENCODING 711
SWIDTH 558 0
DWIDTH 31 0
BBX 17 8 16 35
BITMAP
F80F80
781F00
7C3E00
3C7C00
3EF800
1FF000
1FE000
0FC000
ENDCHAR
STARTCHAR 02C9
ENCODING 713
SWIDTH 558 0
DWIDTH 31 0
BBX 15 4 16 35
BITMAP
FFFE
FFFE
FFFE
FFFE
ENDCHAR
STARTCHAR 02D8
ENCODING 728
SWIDTH 558 0
DWIDTH 31 0
BBX 17 8 16 35
BITMAP
E00380
E00780
F00F00
F83E00
7FFE00
3FFC00
3FF000
0FC000
ENDCHAR
STARTCHAR 02D9
ENCODING 729
SWIDTH 558 0
DWIDTH 31 0
BBX 6 5 21 35
BITMAP
FC
F8
F8
F8
F8
ENDCHAR
STARTCHAR 02DA
ENCODING 730
SWIDTH 576 0
DWIDTH 32 0
BBX 9 8 20 36
BITMAP
3E00
7F00
C180
C180
C180
E380
7F00
3E00
ENDCHAR
STARTCHAR 02DB
ENCODING 731
SWIDTH 558 0
DWIDTH 31 0
BBX 9 8 9 -8
BITMAP
0E00
3C00
7800
F000
F000
F980
7F80
3F80
ENDCHAR
STARTCHAR 02DC
ENCODING 732
SWIDTH 558 0
DWIDTH 31 0
BBX 17 6 15 35
BITMAP
0F0380
3FC780
7FFF80
7FFF00
F1FE00
E07C00
ENDCHAR
STARTCHAR 02DD
ENCODING 733
SWIDTH 558 0
DWIDTH 31 0
BBX 19 8 15 35
BITMAP
01E1E0
03C3C0
078780
0F0F00
1E1E00
3C1C00
783800
F07000
ENDCHAR
STARTCHAR 03C0
ENCODING 960
SWIDTH 792 0
DWIDTH 44 0
BBX 42 29 6 0
BITMAP
07FFFFFFFFC0
3FFFFFFFFFC0
7FFFFFFFFF80
7FFFFFFFFF80
FFFFFFFFFF80
F87E000F8000
C07E001F8000
807C001F8000
007C001F0000
007C001F0000
00FC001F0000
00FC003F0000
00F8003F0000
00F8003E0000
00F8003E0000
01F8003E0000
01F8007E0000
01F0007E0000
01F0007C0000
01F0007C0000
03F0007C0000
03F000FC0000
03E000FC0000
03E000FC0000
03E000FC0000
07E000FC0000
07E000FC0000
07C000FC0000
07C0007E0000
ENDCHAR
STARTCHAR 2013
ENCODING 8211
SWIDTH 486 0
DWIDTH 27 0
BBX 23 3 5 15
BITMAP
7FFFFE
7FFFFE
FFFFFE
ENDCHAR
STARTCHAR 2014
ENCODING 8212
SWIDTH 972 0
DWIDTH 54 0
BBX 50 3 5 15
BITMAP
7FFFFFFFFFFFC0
FFFFFFFFFFFFC0
FFFFFFFFFFFFC0
ENDCHAR
STARTCHAR 2018
ENCODING 8216
SWIDTH 306 0
DWIDTH 17 0
BBX 9 16 11 28
BITMAP
0380
0780
0E00
1C00
3C00
3C00
3800
7800
7800
7E00
7E00
FE00
FE00
FE00
FC00
FC00
ENDCHAR
STARTCHAR 2019
ENCODING 8217
SWIDTH 306 0
DWIDTH 17 0
BBX 9 16 11 26
BITMAP
1F80
3F80
3F80
3F80
3F00
3F00
7F00
0F00
0F00
1E00
1E00
1E00
3C00
3800
F800
E000
ENDCHAR
STARTCHAR 201A
ENCODING 8218
SWIDTH 306 0
DWIDTH 17 0
BBX 9 15 4 -8
BITMAP
1F80
1F80
3F80
3F80
3F80
3F00
3F00
0F00
0F00
1E00
1E00
1C00
3C00
F800
E000
ENDCHAR
STARTCHAR 201C
ENCODING 8220
SWIDTH 360 0
DWIDTH 20 0
BBX 17 13 8 30
BITMAP
030180
0F0780
1E0700
1C0E00
3C1E00
381C00
381C00
781C00
7C3F00
7C3E00
7C3E00
7C3E00
FC3E00
ENDCHAR
STARTCHAR 201D
ENCODING 8221
SWIDTH 360 0
DWIDTH 20 0
BBX 17 14 8 29
BITMAP
1F0F80
1F0F80
3F0F80
3F1F80
3E1F80
0E0700
1E0700
1E0F00
1C0E00
1C0E00
381C00
703C00
E03000
804000
ENDCHAR
STARTCHAR 201E
ENCODING 8222
SWIDTH 360 0
DWIDTH 20 0
BBX 17 14 1 -9
BITMAP
1F0F80
3F0F80
3E1F80
3E1F00
3E1F00
1E0700
1E0F00
1C0E00
1C0E00
381E00
381C00
F03800
E07000
804000
ENDCHAR
STARTCHAR 2020
ENCODING 8224
SWIDTH 612 0
DWIDTH 34 0
BBX 24 47 10 -8
BITMAP
000F80
000F80
000F80
000F80
000F80
001F00
001F00
001F00
001F00
001E00
001E00
001E00
003E00
003C00
7FFFFF
7FFFFE
FFFFFE
003C00
007800
007800
007800
007800
00F800
00F800
00F000
00F000
00F000
01F000
01F000
01E000
01E000
03E000
03E000
03E000
03E000
03C000
07C000
07C000
07C000
07C000
07C000
0F8000
0F8000
0F8000
0F8000
1F8000
1F0000
ENDCHAR
STARTCHAR 2021
ENCODING 8225
SWIDTH 612 0
DWIDTH 34 0
BBX 27 47 7 -8
BITMAP
0001F800
0001F000
0001F000
0001F000
0001F000
0001E000
0001E000
0003E000
0003E000
0003C000
0003C000
0003C000
0003C000
00078000
0FFFFFE0
0FFFFFC0
0FFFFFC0
00078000
00078000
000F0000
000F0000
000F0000
000F0000
000F0000
001E0000
001E0000
001E0000
001E0000
001E0000
003C0000
7FFFFF00
7FFFFE00
FFFFFE00
003C0000
00780000
00780000
00780000
00780000
00F80000
00F80000
00F80000
00F00000
01F00000
01F00000
01F00000
01F00000
03F00000
ENDCHAR
STARTCHAR 2022
ENCODING 8226
SWIDTH 612 0
DWIDTH 34 0
BBX 8 8 16 12
BITMAP
3C
7E
FF
FF
FF
FF
7E
3C
ENDCHAR
STARTCHAR 2026
ENCODING 8230
SWIDTH 972 0
DWIDTH 54 0
BBX 42 5 7 0
BITMAP
FC001F0007C0
FC003F000FC0
F8003E000F80
F8003E000F80
F8003E000F80
ENDCHAR
STARTCHAR 2030
ENCODING 8240
SWIDTH 1008 0
DWIDTH 56 0
BBX 55 42 5 -1
BITMAP
000000001E0000
003F00003C0000
00FFC0007C0000
01FFE000F80000
03E3E001F00000
07C1F001E00000
0780F003C00000
0F00F007800000
0F00F00F000000
0F00F01F000000
1E00F03E000000
1E00F07C000000
1E01E078000000
1E01E0F0000000
1E01E1E0000000
1E03C3C0000000
1F07C7C0000000
0F8F8F80000000
0FFF1F00000000
07FE1E00000000
01F83C00000000
0000783F0007E0
0000F0FFC01FF8
0001F1FFE03FFC
0003E3E3E07C7C
0007C7C1F0F83E
00078780F0F01E
000F0F00F1E01E
001E0F00F1E01E
003C0F00F1E01E
007C1E00F3C01E
00F81E00F3C01E
01F01E01E3C03C
01E01E01E3C03C
03C01E01E3C03C
07801E03C3C078
0F001F07C3E0F8
1F000F8F81F1F0
3E000FFF01FFE0
3C0007FE00FFC0
780001F8003F00
F0000000000000
ENDCHAR
STARTCHAR 2039
ENCODING 8249
SWIDTH 324 0
DWIDTH 18 0
BBX 15 24 6 2
BITMAP
0008
001C
003E
007C
00F8
01F0
03E0
07C0
0F80
3F00
7E00
FC00
F800
F800
7C00
3C00
3E00
1F00
0F00
0F80
0780
03C0
03C0
0180
ENDCHAR
STARTCHAR 203A
ENCODING 8250
SWIDTH 324 0
DWIDTH 18 0
BBX 15 23 3 3
BITMAP
0700
0780
0780
03C0
03E0
01E0
01F0
00F8
00F8
007C
003E
003E
007C
00F8
01F0
03E0
07C0
0F80
1E00
7C00
F800
F000
6000
ENDCHAR
STARTCHAR 20AC
ENCODING 8364
SWIDTH 612 0
DWIDTH 34 0
BBX 36 41 3 -1
BITMAP
000007FF00
00003FFFF0
0000FFFFF0
0003FFFFF0
0007FC03F0
000FE00020
001FC00000
003F000000
007E000000
00FC000000
00FC000000
01F8000000
01F0000000
03F0000000
07E0000000
7FFFFFE000
7FFFFFE000
7FFFFFE000
FFFFFFE000
0F80000000
0F80000000
1F80000000
7FFFFF8000
FFFFFF8000
FFFFFF8000
FFFFFF8000
1F80000000
1F80000000
1F80000000
1F80000000
1F80000000
1F80000000
0FC0000000
0FC0000000
0FE0000400
07F0001C00
03FC00FC00
03FFFFFC00
01FFFFFC00
007FFFE000
001FFF0000
ENDCHAR
STARTCHAR 2122
ENCODING 8482
SWIDTH 792 0
DWIDTH 44 0
BBX 42 20 7 20
BITMAP
7FFFC3F00FC0
FFFFC3F01FC0
FFFFC3F01FC0
01E007F03F80
03E007F83F80
03E007F87F80
03E007F86F80
03C007F8EF80
03C00F79CF80
07C00F79CF00
07C00F7F9F00
07C00E7F9F00
07C00E7F1F00
07801E7F1F00
07801E3E1E00
0F801E3E3E00
0F801E3C3E00
0F801C3C3E00
0F001C003E00
0F003C003C00
ENDCHAR
STARTCHAR 2126
ENCODING 8486
SWIDTH 756 0
DWIDTH 42 0
BBX 42 41 2 0
BITMAP
000003FE0000
00001FFFC000
00007FFFF000
0001FFFFF800
0003FE03FC00
0007F800FE00
000FE0007F00
001FC0003F00
003F00001F80
007E00000F80
00FE00000F80
00FC00000FC0
01F800000FC0
01F800000FC0
03F000000FC0
03F000000FC0
03F000000FC0
07E000000FC0
07E000000FC0
07E000000F80
07E000000F80
07E000001F80
07E000001F80
07E000003F00
07E000003F00
07E000007E00
03E000007C00
03E00000FC00
03F00001F800
01F00001F000
01F00003F000
00F80007E000
00F8000FC000
007C001F8000
007C003F0000
003E007E0000
001F00FC0000
FFFF01FFFF00
FFFF01FFFF00
FFFF01FFFE00
FFFE01FFFE00
ENDCHAR
STARTCHAR 2202
ENCODING 8706
SWIDTH 630 0
DWIDTH 35 0
BBX 24 43 8 0
BITMAP
00FF80
03FFC0
07FFE0
0FFFF0
1C03F8
3000FC
00007C
00003C
00003E
00001E
00001E
00001E
00000F
00000F
00000F
000F8F
003FEF
00FFFF
01FFFF
03F07F
07C01F
0F800F
0F000F
1F000F
3E000F
3E001E
7C001E
7C001E
78001E
78001E
F8003C
F8003C
F80078
F80078
F800F8
F800F0
FC01E0
FC03E0
7E07C0
7FFF80
3FFF00
1FFC00
0FF800
ENDCHAR
STARTCHAR 2206
ENCODING 8710
SWIDTH 648 0
DWIDTH 36 0
BBX 36 40 0 0
BITMAP
000003F000
000003F800
000007F800
000007F800
00000FF800
00001FF800
00001FFC00
00003EFC00
00003EFC00
00007C7C00
0000FC7E00
0000F87E00
0001F07E00
0003F03E00
0003E03F00
0007E03F00
0007C03F00
000F801F00
001F801F00
001F001F80
003E001F80
003E001F80
007C000F80
00FC000FC0
00F8000FC0
01F0000FC0
01F00007C0
03E00007E0
07E00007E0
07C00007E0
0F800003E0
1F800003E0
1F000003F0
3E000003F0
3E000003F0
7FFFFFFFF0
7FFFFFFFF0
7FFFFFFFF0
7FFFFFFFF0
FFFFFFFFE0
ENDCHAR
STARTCHAR 220F
ENCODING 8719
SWIDTH 738 0
DWIDTH 41 0
BBX 40 40 6 0
BITMAP
07FFFFFFFF
0FFFFFFFFF
0FFFFFFFFE
0FFFFFFFFE
03F00001F0
03F00001F0
03F00003F0
03E00003F0
03E00003F0
07E00003E0
07E00003E0
07E00007E0
07E00007E0
07C00007E0
07C00007C0
0FC00007C0
0FC0000FC0
0FC0000FC0
0F80000FC0
0F80000F80
1F80000F80
1F80001F80
1F80001F80
1F00001F80
1F00001F00
3F00001F00
3F00003F00
3F00003F00
3E00003F00
3E00003E00
7E00003E00
7E00007E00
7E00007E00
7C00007E00
7C00007E00
FC00007C00
FC00007C00
FC0000FC00
F80000FC00
F80000FC00
ENDCHAR
STARTCHAR 2211
ENCODING 8721
SWIDTH 630 0
DWIDTH 35 0
BBX 39 40 1 0
BITMAP
007FFFFFFE
007FFFFFFE
007FFFFFFE
007FFFFFFE
007F000000
003F800000
003F800000
001FC00000
000FE00000
0007F00000
0007F00000
0003F80000
0001FC0000
0000FE0000
0000FE0000
00007F0000
00003F8000
00003F8000
00001FC000
00000FE000
00001FC000
00003F8000
00007F0000
0000FC0000
0003F80000
0007F00000
000FE00000
003F800000
007F000000
00FE000000
01F8000000
07F0000000
0FE0000000
1FC0000000
3F00000000
7FFFFFFFC0
7FFFFFFFC0
FFFFFFFF80
FFFFFFFF80
FFFFFFFF80
ENDCHAR
STARTCHAR 2215
ENCODING 8725
SWIDTH 108 0
DWIDTH 6 0
BBX 40 42 -13 -1
BITMAP
000000001F
000000003E
000000007E
00000000FC
00000000F8
00000001F0
00000003E0
00000007C0
0000000F80
0000001F80
0000003F00
0000003E00
0000007C00
000000F800
000001F000
000003E000
000007E000
00000FC000
00000F8000
00001F0000
00003E0000
00007C0000
0000F80000
0001F80000
0003F00000
0003E00000
0007C00000
000F800000
001F000000
003E000000
007C000000
00FC000000
00F8000000
01F0000000
03E0000000
07C0000000
0F80000000
1F00000000
3F00000000
3E00000000
7C00000000
F800000000
ENDCHAR
STARTCHAR 2219
ENCODING 8729
SWIDTH 612 0
DWIDTH 34 0
BBX 7 7 17 13
BITMAP
7E
FE
FE
FE
FC
FC
FC
ENDCHAR
STARTCHAR 221A
ENCODING 8730
SWIDTH 702 0
DWIDTH 39 0
BBX 43 52 5 -8
BITMAP
0000000001E0
0000000001E0
0000000003C0
0000000003C0
000000000780
000000000780
000000000F00
000000001F00
000000001E00
000000003E00
000000003C00
000000007C00
000000007800
00000000F000
00000000F000
00000001E000
00000001E000
00000003C000
00000003C000
000000078000
000000078000
0000000F0000
0000001F0000
0000001E0000
0000003E0000
0000003C0000
000000780000
000000780000
000000F00000
038000F00000
0F8001E00000
3FC001E00000
FFC003C00000
7BC003C00000
63E007800000
01E007800000
01F00F000000
01F01F000000
00F01E000000
00F83C000000
00F83C000000
007C78000000
007C78000000
003CF0000000
003EF0000000
003FE0000000
001FE0000000
001FC0000000
000FC0000000
000F80000000
000F80000000
000700000000
ENDCHAR
STARTCHAR 221E
ENCODING 8734
SWIDTH 828 0
DWIDTH 46 0
BBX 40 23 6 5
BITMAP
007E0003E0
01FF800FF8
03FFC03FFC
07FFC07FFE
0F87E0FC3E
1E03F1F01F
3C01F3E01F
3C00FBC00F
7800FF800F
78007F000F
78007E000F
F0007C000F
F0007E001E
F000FE001E
F001FF001E
F003CF003C
F007CF807C
F80F87C078
7C1F07E1F0
7FFE03FFE0
3FFC03FFC0
1FF801FF80
07C0007E00
ENDCHAR
STARTCHAR 222B
ENCODING 8747
SWIDTH 612 0
DWIDTH 34 0
BBX 20 49 10 -8
BITMAP
0007C0
000FE0
001FF0
003DF0
003DF0
0078E0
007800
007800
00F800
00F800
00F800
00F800
00F800
00F800
00F800
00F800
00F800
00F800
01F800
01F800
01F800
01F800
01F800
01F800
01F800
01F800
01F800
01F800
01F800
01F800
01F800
01F800
01F800
01F800
01F800
01F800
01F800
01F000
01F000
01F000
01F000
01F000
01E000
71E000
F9E000
FBC000
FF8000
7F0000
3E0000
ENDCHAR
STARTCHAR 2248
ENCODING 8776
SWIDTH 612 0
DWIDTH 34 0
BBX 33 21 4 5
BITMAP
007C000000
01FF000780
03FFC00F00
07FFE00F00
0F8FF81E00
1F03FE3E00
1E00FFFC00
1E007FFC00
3C001FF000
000007E000
0000000000
01F0000000
07FC003C00
1FFE003C00
3FFF803C00
3E3FE07800
7C0FF0F800
7807FFF000
F001FFE000
F0007FC000
00001F0000
ENDCHAR
STARTCHAR 2260
ENCODING 8800
SWIDTH 612 0
DWIDTH 34 0
BBX 31 23 5 4
BITMAP
000003C0
000007C0
00000F80
00001F00
00001E00
3FFFFFFE
3FFFFFFE
3FFFFFFE
3FFFFFFC
0001E000
0003E000
0007C000
000F8000
000F0000
FFFFFFF8
FFFFFFF8
FFFFFFF8
FFFFFFF8
00F00000
01F00000
03E00000
03C00000
07C00000
ENDCHAR
STARTCHAR 2264
ENCODING 8804
SWIDTH 612 0
DWIDTH 34 0
BBX 35 34 3 1
BITMAP
0000000060
00000001E0
00000007E0
0000003FE0
000000FFC0
000003FF00
00000FF800
00003FE000
0000FF8000
0007FE0000
001FF80000
007FE00000
01FF000000
07FC000000
07F8000000
03FE000000
00FF000000
003FC00000
000FF00000
0007FC0000
0001FE0000
00007F8000
00001FE000
00000FF800
000003FC00
000000FC00
0000003C00
0000001C00
0000000400
0000000000
FFFFFFF800
FFFFFFF800
FFFFFFF800
FFFFFFF800
ENDCHAR
STARTCHAR 2265
ENCODING 8805
SWIDTH 612 0
DWIDTH 34 0
BBX 32 34 3 1
BITMAP
03800000
03C00000
03F00000
03FC0000
00FF0000
003FC000
001FE000
0007F800
0001FE00
00007F80
00003FC0
00000FF0
000003FC
000000FF
000003FF
00000FF8
00003FE0
0001FF80
0007FE00
001FF800
007FE000
01FF0000
07FC0000
1FF00000
3FC00000
7F000000
7C000000
60000000
00000000
00000000
FFFFFFF8
FFFFFFF8
FFFFFFF8
FFFFFFF8
ENDCHAR
STARTCHAR 25CA
ENCODING 9674
SWIDTH 612 0
DWIDTH 34 0
BBX 28 29 6 1
BITMAP
0000C000
0001C000
0003E000
000FF000
001FF800
003FFC00
007C7C00
00F83E00
01F03F00
07E01F80
0FC00FC0
1F8007C0
3E0003E0
7C0003F0
F80001F0
7C0003E0
7E000FC0
3F001F80
1F803F00
0F807C00
07C0F800
07E3F000
03F7E000
01FFC000
00FF8000
00FE0000
007C0000
00380000
00100000
ENDCHAR
STARTCHAR F001
ENCODING 61441
SWIDTH 630 0
DWIDTH 35 0
BBX 33 54 4 -10
BITMAP
00007FC000
0001FF8000
0003FF8000
0007FF8F80
000FC00F80
001F000F80
003E001F80
003E001F00
007C000000
007C000000
00FC000000
00F8000000
00F8000000
00F8000000
1FFFFFFE00
1FFFFFFE00
1FFFFFFE00
3FFFFFFE00
01F0007C00
01F0007C00
03F0007C00
03E0007C00
03E000FC00
03E000F800
03E000F800
07E000F800
07C000F800
07C001F800
07C001F000
07C001F000
0FC001F000
0F8001F000
0F8003F000
0F8003E000
0F8003E000
1F8003E000
1F8003E000
1F0007E000
1F0007C000
1F0007C000
3F0007C000
3F0007C000
3E000FC000
3E00000000
3E00000000
7E00000000
7E00000000
7C00000000
7C00000000
7C00000000
FC00000000
FC00000000
F800000000
F800000000
ENDCHAR
STARTCHAR F002
ENCODING 61442
SWIDTH 630 0
DWIDTH 35 0
BBX 34 54 4 -10
BITMAP
0000FFFFC0
0001FFFFC0
0007FFFF80
000FFFFF80
001FC03F80
001F001F80
003F001F80
003E001F00
007C001F00
007C001F00
00FC001F00
00F8003F00
00F8003E00
00F8003E00
1FFFF03E00
1FFFF03E00
1FFFF07E00
3FFFE07C00
01F0007C00
01F0007C00
03F0007C00
03E000FC00
03E000FC00
03E000F800
03E000F800
07E000F800
07C001F800
07C001F800
07C001F000
07C001F000
0FC001F000
0F8003F000
0F8003F000
0F8003E000
0F8003E000
1F8003E000
1F8003E000
1F0007E000
1F0007C000
1F0007C000
3F0007C000
3F0007C000
3E000FC000
3E00000000
3E00000000
7E00000000
7E00000000
7C00000000
7C00000000
7C00000000
FC00000000
FC00000000
F800000000
F800000000
ENDCHAR
ENDFONT
